<?xml version="1.0" encoding="utf-8"?>
<!-- Generator: Adobe Illustrator 26.3.1, SVG Export Plug-In . SVG Version: 6.00 Build 0)  -->
<svg version="1.1" id="Layer_1" xmlns="http://www.w3.org/2000/svg" xmlns:xlink="http://www.w3.org/1999/xlink" x="0px" y="0px"
	 viewBox="0 0 250 104.1" style="enable-background:new 0 0 250 104.1;" xml:space="preserve">
<style type="text/css">
	.st0{display:none;}
	.st1{display:inline;}
	.st2{fill:#232C65;}
	.st3{fill:#E65525;}
	.st4{fill:#FFFFFF;}
	.st5{fill:#88714D;}
	.st6{fill:#ACC37E;}
	.st7{fill:#778837;}
	.st8{clip-path:url(#XMLID_00000174566445244186602180000013567793817858751408_);}
	.st9{fill:url(#XMLID_00000167384690832660768440000004132483766953281686_);}
	.st10{fill:url(#XMLID_00000091726789849058881200000005289123220202658745_);}
	.st11{fill:url(#XMLID_00000161611574346161914740000000310737062525326757_);}
	.st12{fill:url(#XMLID_00000028315797932426559140000006780807233441790133_);}
	.st13{fill:url(#XMLID_00000096029487943451477800000006039339405367497124_);}
	.st14{fill:url(#XMLID_00000147202111240385072100000003047609402902780589_);}
	.st15{fill:url(#XMLID_00000108293283793892569100000010214922648870746005_);}
	.st16{fill:url(#XMLID_00000142881175266084420900000002029159736060144264_);}
	.st17{fill:url(#XMLID_00000043450059675895490360000001662054209372140185_);}
	.st18{fill:url(#XMLID_00000150821156908235504710000014866380734706298280_);}
	.st19{fill:url(#XMLID_00000058588022472599084450000013696628017387525013_);}
	.st20{fill:url(#XMLID_00000145045536074840304130000012796322027619515787_);}
	.st21{fill:#6D6E71;}
	.st22{fill:#002169;}
</style>
<g id="XMLID_493_" class="st0">
	<g id="XMLID_412_" class="st1">
		<rect id="XMLID_413_" x="-582.4" y="51.3" class="st2" width="332.4" height="0.8"/>
	</g>
	<g id="XMLID_399_" class="st1">
		<g id="XMLID_410_">
			<path id="XMLID_411_" class="st2" d="M-574.1-128.3c1.2,6.8,6.4,10.1,11.8,10.9c16,2.4,31.7-5.9,47.4-2.6
				c14.9,3.1,26.3,14.4,29.1,30.3c3.7,20.8-1.1,43.4-21.5,53.3c-13.4,6.6-25.7-3.2-40.1-1.1c-3.4,0.5-6.3,3.1-10.1,3
				c9.5-18.1,9.2-41.1,7.7-58.9c-0.3-3.8,13.4-3.2,20.8-3.1c-3.4,15-2.6,30.1-0.9,45.2c0.4,3.4,5.7,7.5,8.9,6
				c20.9-9.9,22-48.6-0.2-56.4c-16.9-5.9-35.9,11.5-52.6-7c-5.4-5.9-6.8-16.9-0.7-23.6C-574.4-131.1-574.3-129.4-574.1-128.3"/>
		</g>
		<g id="XMLID_408_">
			<path id="XMLID_409_" class="st2" d="M-460.2-116.5c19.6,17.9-1.2,42.1,2.1,63.6c0.6,4,4,7.6,8,7.9c5.2,0.5,10.2-2.3,11.3-8
				c3.4-16.1,2.6-31.2,0.4-46.8h18.4c-1.4,21.2-3.5,42.4,0,63.7c-6.1-0.8-9-7.3-16.3-2.7c-12,7.7-26.7,9.3-35-1.2
				c-16.2-20.4,2.6-42.2,8.9-63.3c1.6-5.2,1.3-11.2-1.1-16.6C-462.5-118.7-461.4-117.6-460.2-116.5"/>
		</g>
		<g id="XMLID_406_">
			<path id="XMLID_407_" class="st2" d="M-355.9-98.9c0,5.6-2.6,9.4-7.3,10.9c-5.6,1.8-12-0.9-18.2,0.4c-4.4,0.9-8.3,5.8-6.3,9.2
				c5.1,8.8,20.1,2.9,29.3,9.8c11.6,8.6,8,24.7-1.7,32c-13.1,9.8-26.3-2.5-39.9-3.7c-3.3-0.3-7.7,2-10,5.9
				c3.7-15.4,20.5-15.2,32.9-15.7c4.6-0.2,4.9-2.4,5.4-4.5c1.3-4.5-1.3-8-5-9.5c-9-3.5-20.1,0.1-27.7-6.2c-3.9-3.1-6.1-9.4-4.3-14.9
				c6.1-19.5,24.8-17.9,42-12.5c4.5,1.4,9.1-3.7,10.5-7C-356.1-103.7-355.9-100-355.9-98.9"/>
		</g>
		<g id="XMLID_402_">
			<path id="XMLID_403_" class="st2" d="M-341.2-99.2c2.3,20.2,1.6,40.8,0.5,60.2c-0.1,2.1,13.3,1.4,20.3,1.3c1.4,0,0.7-1.4,0.7-1.4
				c-3.5-20.9-1.9-40.9-2.1-59.5c-0.1-5.1-11.6-2.9-15.5-2.8c-0.7,0-1.9,0.4-2.6,0.4C-339.9-100.9-341.8-101-341.2-99.2 M-324.6-123
				c4.5,2,4.9,6.9,2.8,9.4c-3.9,4.7-10.2,5.1-16,1.9c-2.2-1.2-3.4-4.1-3.1-6.2C-339.8-123.8-331.1-126-324.6-123"/>
		</g>
		<g id="XMLID_400_">
			<path id="XMLID_401_" class="st2" d="M-286.9-116.4c-0.3,6.9,2.4,11.7,6.1,14.4c2.5,1.8,6.8,2.1,10.9,2.1c-2.4,1-7.2,2.1-9.2,3.4
				c-3,1.8-4,4-4.1,5.8c-0.5,12.5-3.1,29.6,0.4,40.6c1.9,6.2,7.9,8.5,13.7,4c6.4-5.5,8.8-7,13.4-7c-3.5,1.8-7.7,6.2-9.8,11.6
				c-3.3,8.5-12.1,11.8-21.8,9.9c-25.7-5.1-14.8-45.6-18.5-62.4c-0.7-3-2.6-4.6-4.4-5.8c17.4-2.1,21-12.7,23.4-24.4
				C-286.9-122.7-286.9-116.8-286.9-116.4"/>
		</g>
	</g>
	<g id="XMLID_397_" class="st1">
		<path id="XMLID_398_" class="st2" d="M-604.6,15.3v10c0,1.2,0.5,2.2,1.5,2.2v0.7c-0.6,0-1.8-0.1-3.1-0.1c-1.2,0-2.4,0.1-2.9,0.1
			v-0.7c0.9,0,1.5-1.1,1.5-2.2V11.6c0-8.5-0.3-9-1.9-8.8V2.1c1,0,2.2,0.1,3.3,0.1c1.3,0,2.5-0.1,3.5-0.1v0.7c-1.3,0-1.8,1.1-1.8,2.2
			l-0.1,8.8h18l-0.1-8.8c0-1.2-0.4-2.2-1.8-2.2V2.1c1,0,2.2,0.1,3.5,0.1c1.2,0,2.4-0.1,3.3-0.1v0.7c-1.6-0.1-1.9,0.3-1.9,8.8v13.7
			c0,1.2,0.6,2.2,1.5,2.2v0.7c-0.6,0-1.8-0.1-2.9-0.1c-1.3,0-2.5,0.1-3.1,0.1v-0.7c0.9,0,1.5-1.1,1.5-2.2v-10H-604.6"/>
	</g>
	<g id="XMLID_393_" class="st1">
		<path id="XMLID_394_" class="st2" d="M-561.3,27.4c7.4,0,10.5-5.5,10.5-12.3c0-6.8-3.1-12.3-10.5-12.3c-7.4,0-10.4,5.5-10.4,12.3
			C-571.7,22-568.6,27.4-561.3,27.4 M-561.3,1.6c8.2,0,14.2,5.8,14.2,13.5c0,7.7-6,13.5-14.2,13.5c-8.2,0-14.2-5.8-14.2-13.5
			C-575.5,7.5-569.5,1.6-561.3,1.6"/>
	</g>
	<g id="XMLID_391_" class="st1">
		<path id="XMLID_392_" class="st2" d="M-537.4,3.8c-2.6,0-3.4,0.6-4.1,2.6h-0.7l-0.2-4.8h0.2c0.6,0.2,1.6,0.5,2.3,0.5
			c3.2,0,6.4,0.1,9.7,0.1c3.2,0,6.4-0.1,9.7-0.1c0.7,0,1.7-0.2,2.3-0.5h0.2l-0.2,4.8h-0.7c-0.7-2-1.6-2.6-4.1-2.6h-5.5l-0.1,21.5
			c0,1.4,0.6,1.8,2.6,2.2v0.7c-1.4,0-2.8-0.2-4.2-0.2c-1.4,0-2.8,0.2-4.2,0.2v-0.7c2.2-0.5,2.7-0.9,2.7-2.2l-0.1-21.5H-537.4"/>
	</g>
	<g id="XMLID_389_" class="st1">
		<path id="XMLID_390_" class="st2" d="M-496.6,6.2h-0.7c-0.4-1.7-1.8-2.7-5.1-2.7h-6.1c-0.2,1.7-0.3,4.7-0.3,6.9v3.8h6.9
			c2.2,0,2.9-0.5,3.4-1.9h0.7c0,0.8-0.1,1.7-0.1,2.5c0,0.9,0.1,1.7,0.1,2.6h-0.7c-0.4-1.4-1.2-1.9-3.4-1.9h-6.9v11.3h8.2
			c2.5,0,3.6-1.1,4.3-2.6l0.6,0.1l-0.6,4.1c-1.4-0.3-2.7-0.3-5.2-0.3h-12.7v-0.5c1.6-0.1,2.2-0.6,2.2-2.2V14.9
			c0-11.6-0.2-11.9-2.2-12V2.2h15.6c0.9,0,1.1-0.2,1.3-0.6h0.7V6.2"/>
	</g>
	<g id="XMLID_387_" class="st1">
		<path id="XMLID_388_" class="st2" d="M-488.2,15.9c0-12.6-0.2-12.9-2.3-13.2V2.1c1.4,0,2.6,0.1,3.8,0.1c1.3,0,2.5-0.1,3.5-0.1v0.7
			c-1.3,0-1.8,1.1-1.8,2.2c0,1.8-0.2,7.5-0.2,10.9c0,3.6,0.2,7.9,0.2,10.8h7.8c3,0,4.2-1,5.2-3.1l0.6,0.2l-1,4.5
			c-1.3-0.3-6-0.3-8.9-0.3c-3,0-5.9,0.1-8.8,0.1v-0.7c1.3,0,1.8-1.1,1.8-2.2V15.9"/>
	</g>
	<g id="XMLID_385_" class="st1">
		<path id="XMLID_386_" class="st2" d="M-452.4,6.3c-0.8-2.4-3.7-3.5-6.1-3.5c-3.2,0-6.3,1.6-6.3,5c0,8,13.9,4.5,13.9,13.4
			c0,4.9-3.7,7.4-8.5,7.4c-2.4,0-4.8-0.4-7.3-1.1l-0.2-3.9h0.7c0.9,2.7,4.1,3.8,6.7,3.8c3.1,0,5.8-1.5,5.8-4.8
			c0-7.9-13.9-3.8-13.9-13.4c0-5.4,4.5-7.6,9.6-7.6c2,0,4,0.6,6,0.5l0.2,4.2H-452.4"/>
	</g>
	<g id="XMLID_380_" class="st1">
		<path id="XMLID_381_" class="st2" d="M-424.7,13c0-1.5-1-2.5-2.5-2.5c-1.6,0-2.6,1.1-2.6,2.3c0,2.1,1.1,2.8,2.5,4
			C-425.9,16.2-424.7,15.3-424.7,13 M-428.9,18.5c-1.4,1-2.8,1.9-2.8,3.7c0,2.9,2.8,4.5,5,4.5c1.8,0,3.4-0.9,4.5-2.2L-428.9,18.5z
			 M-421.5,25.2c-1.6,1.9-3.6,3.5-6.3,3.5c-3.1,0-5.8-2.1-5.8-5.2c0-2.5,1.9-4.4,4.1-5.5c-1.3-1.1-2.4-2.4-2.4-4.1
			c0-2.2,1.8-4.2,4.4-4.2c2.1,0,4.6,0.8,4.6,3.5c0,1.5-1.8,3.4-3.7,4.1l5.9,5.4c0.6-0.8,1.5-2.8,1.5-3.7c0-1.3-0.5-1.4-1.7-1.7v-0.7
			c0.9,0.1,1.9,0.2,2.8,0.2c1,0,1.9-0.2,2.8-0.2v0.7c-1,0.1-1.6,0.4-2,0.8c-0.4,0.5-2.1,4.5-2.8,5.3c1.3,1.3,3,3.2,4.8,3.8
			c0.4,0.2,0.8,0.2,1.3,0.2v0.7c-0.8-0.1-1.7-0.1-2.5-0.1c-0.8,0-1.7,0.1-2.5,0.1L-421.5,25.2"/>
	</g>
	<g id="XMLID_376_" class="st1">
		<path id="XMLID_377_" class="st2" d="M-391.9,15.5c0.5,0.1,1.1,0.2,1.8,0.2c4.3,0,7.1-2.5,7.1-6.2c0-3.7-2.4-6.6-6.9-6.6
			c-1.6,0-1.9,0.1-1.9,1.3c0,1.7-0.2,3.7-0.2,5.3V15.5z M-395,15.1c0-3.4-0.2-6.8-0.2-9.5c0-1.9-0.4-2.9-2.2-2.9V2.1
			c1.9,0,5.3-0.2,7.3-0.2c5.4,0,10.5,2,10.5,7.7c0,3.5-3.3,6-6.6,6.8l8.7,9.6c0.8,0.9,1.5,1.2,2.5,1.5v0.7c-1,0-2-0.1-3.1-0.1
			c-1,0-2,0.1-3.1,0.1v-0.7c0.1-0.1,0.3-0.2,0.3-0.3c0-0.1-0.2-0.4-0.3-0.6l-6.7-7.8c-0.9-1.1-2.2-1.9-4-2.1v8.5
			c0,1.2,0.5,2.2,1.8,2.2v0.7c-1,0-2.2-0.1-3.5-0.1c-1.2,0-2.4,0.1-3.3,0.1v-0.7c1.3,0,1.9-1.1,1.9-2.2V15.1"/>
	</g>
	<g id="XMLID_374_" class="st1">
		<path id="XMLID_375_" class="st2" d="M-354.8,6.2h-0.7c-0.4-1.7-1.9-2.7-5.1-2.7h-6.1c-0.2,1.7-0.3,4.7-0.3,6.9v3.8h6.9
			c2.2,0,3-0.5,3.4-1.9h0.7c0,0.8-0.1,1.7-0.1,2.5c0,0.9,0.1,1.7,0.1,2.6h-0.7c-0.4-1.4-1.2-1.9-3.4-1.9h-6.9v11.3h8.2
			c2.5,0,3.6-1.1,4.3-2.6l0.6,0.1l-0.6,4.1c-1.4-0.3-2.7-0.3-5.2-0.3h-12.6v-0.5c1.6-0.1,2.2-0.6,2.2-2.2V14.9
			c0-11.6-0.2-11.9-2.2-12V2.2h15.6c0.9,0,1.1-0.2,1.3-0.6h0.7V6.2"/>
	</g>
	<g id="XMLID_372_" class="st1">
		<path id="XMLID_373_" class="st2" d="M-333.6,6.3c-0.8-2.4-3.6-3.5-6.1-3.5c-3.2,0-6.2,1.6-6.2,5c0,8,13.9,4.5,13.9,13.4
			c0,4.9-3.7,7.4-8.5,7.4c-2.4,0-4.8-0.4-7.3-1.1l-0.2-3.9h0.7c0.9,2.7,4,3.8,6.7,3.8c3.1,0,5.8-1.5,5.8-4.8
			c0-7.9-13.9-3.8-13.9-13.4c0-5.4,4.5-7.6,9.6-7.6c2,0,4,0.6,6,0.5l0.2,4.2H-333.6"/>
	</g>
	<g id="XMLID_368_" class="st1">
		<path id="XMLID_369_" class="st2" d="M-311.9,27.4c7.3,0,10.4-5.5,10.4-12.3c0-6.8-3.1-12.3-10.4-12.3c-7.3,0-10.5,5.5-10.5,12.3
			C-322.4,22-319.3,27.4-311.9,27.4 M-311.9,1.6c8.2,0,14.2,5.8,14.2,13.5c0,7.7-6,13.5-14.2,13.5c-8.2,0-14.2-5.8-14.2-13.5
			C-326.1,7.5-320.1,1.6-311.9,1.6"/>
	</g>
	<g id="XMLID_364_" class="st1">
		<path id="XMLID_365_" class="st2" d="M-286.5,15.5c0.5,0.1,1.1,0.2,1.8,0.2c4.3,0,7.1-2.5,7.1-6.2c0-3.7-2.4-6.6-6.9-6.6
			c-1.6,0-1.9,0.1-1.9,1.3c0,1.7-0.2,3.7-0.2,5.3V15.5z M-289.7,15.1c0-3.4-0.1-6.8-0.1-9.5c0-1.9-0.4-2.9-2.2-2.9V2.1
			c1.9,0,5.3-0.2,7.3-0.2c5.4,0,10.5,2,10.5,7.7c0,3.5-3.3,6-6.6,6.8l8.7,9.6c0.8,0.9,1.5,1.2,2.5,1.5v0.7c-1,0-2-0.1-3.1-0.1
			c-1,0-2,0.1-3.1,0.1v-0.7c0.1-0.1,0.3-0.2,0.3-0.3c0-0.1-0.2-0.4-0.3-0.6l-6.7-7.8c-0.9-1.1-2.2-1.9-4-2.1v8.5
			c0,1.2,0.5,2.2,1.8,2.2v0.7c-1,0-2.1-0.1-3.5-0.1c-1.2,0-2.4,0.1-3.3,0.1v-0.7c1.3,0,1.8-1.1,1.8-2.2V15.1"/>
	</g>
	<g id="XMLID_362_" class="st1">
		<path id="XMLID_363_" class="st2" d="M-265,3.8c-2.6,0-3.4,0.6-4.1,2.6h-0.7l-0.2-4.8h0.2c0.6,0.2,1.6,0.5,2.3,0.5
			c3.2,0,6.4,0.1,9.7,0.1c3.2,0,6.4-0.1,9.7-0.1c0.7,0,1.7-0.2,2.3-0.5h0.2l-0.2,4.8h-0.7c-0.7-2-1.6-2.6-4.1-2.6h-5.5l-0.1,21.5
			c0,1.4,0.6,1.8,2.6,2.2v0.7c-1.4,0-2.8-0.2-4.2-0.2c-1.4,0-2.8,0.2-4.3,0.2v-0.7c2.2-0.5,2.7-0.9,2.7-2.2l-0.1-21.5H-265"/>
	</g>
	<g id="XMLID_249_" class="st1">
		<g id="XMLID_330_">
			<rect id="XMLID_331_" x="-510.2" y="221.1" class="st3" width="45.8" height="26"/>
		</g>
		<g id="XMLID_303_">
			<g id="XMLID_322_">
				<g id="XMLID_325_">
					<g id="XMLID_326_">
						<path id="XMLID_327_" class="st4" d="M-479.3,232.3c0,0,0-1.2,0-2.8c0-1.7-1.5-1.8-1.5-1.8h-3.1v6.6c0,0,0.9,0,2.9,0
							C-479.1,234.3-479.3,232.3-479.3,232.3z M-481.1,232.3c0,0.9-1,0.8-1,0.8V229c1,0,1,0.8,1,0.8S-481.1,231.3-481.1,232.3z"/>
					</g>
				</g>
				<g id="XMLID_323_">
					<path id="XMLID_324_" class="st4" d="M-477.2,230h-1.7c0,0-0.3-2.3,2.2-2.3c1,0,2.1,0.4,2.1,2.1c0,0.9-0.4,1.4-0.9,2
						c-0.6,0.6-1.2,1.2-1.2,1.2h2.2v1.3h-4.5c0,0-0.2-1,1.1-2.5c0.5-0.6,1.2-1.3,1.2-1.3s0.3-0.2,0.3-0.8c0-0.5,0.1-0.9-0.4-0.9
						C-477.3,228.9-477.2,229.4-477.2,230z"/>
				</g>
			</g>
			<g id="XMLID_304_">
				<g id="XMLID_318_">
					<path id="XMLID_319_" class="st4" d="M-497.2,233.4L-497.2,233.4c-0.2,0.6-0.6,0.9-1.2,0.9c-1.1,0-1.6-0.9-1.6-2.6
						c0-1.7,0.5-2.6,1.6-2.6c0.6,0,1,0.3,1.2,0.9h0v-2.5h0.6v6.7h-0.5V233.4z M-498.4,233.9c0.6,0,1.1-0.3,1.1-2.1
						c0-1.8-0.5-2.1-1.1-2.1c-0.6,0-1.1,0.3-1.1,2.1C-499.4,233.6-498.9,233.9-498.4,233.9z"/>
				</g>
				<g id="XMLID_315_">
					<path id="XMLID_316_" class="st4" d="M-495.9,229.3h0.6v3.5c0,0.8,0.3,1.1,0.9,1.1c0.6,0,1.1-0.5,1.1-1.3v-3.3h0.6v5h-0.5v-0.7
						h0c-0.3,0.5-0.8,0.8-1.3,0.8c-0.8,0-1.3-0.4-1.3-1.3V229.3z"/>
				</g>
				<g id="XMLID_312_">
					<path id="XMLID_313_" class="st4" d="M-491,231.8c-0.7-0.3-1-0.7-1-1.2c0-1,0.6-1.4,1.5-1.4c0.9,0,1.4,0.5,1.4,1.4v0.1h-0.6
						v-0.1c0-0.6-0.3-0.9-0.8-0.9c-0.7,0-0.9,0.3-0.9,0.8c0,0.3,0.1,0.6,0.7,0.8l0.8,0.3c0.7,0.3,0.9,0.7,0.9,1.3
						c0,0.9-0.5,1.5-1.5,1.5c-1,0-1.5-0.4-1.5-1.5v-0.2h0.6v0.1c0,0.7,0.3,1.1,1,1.1c0.6,0,1-0.3,1-0.9c0-0.4-0.2-0.7-0.7-0.9
						L-491,231.8z"/>
				</g>
				<g id="XMLID_308_">
					<path id="XMLID_309_" class="st4" d="M-488.2,227.6h0.6v1h-0.6V227.6z M-488.2,229.3h0.6v5h-0.6V229.3z"/>
				</g>
				<g id="XMLID_305_">
					<path id="XMLID_306_" class="st4" d="M-486.1,229.7h-0.7v-0.5h0.7v-1.4h0.6v1.4h0.9v0.5h-0.9v3.6c0,0.4,0.2,0.5,0.5,0.5
						c0.1,0,0.2,0,0.3-0.1v0.5c-0.1,0-0.2,0.1-0.4,0.1c-0.8,0-1.1-0.2-1.1-0.9V229.7z"/>
				</g>
			</g>
		</g>
		<g id="XMLID_300_">
			<g id="XMLID_301_">
				<rect id="XMLID_302_" x="-492.3" y="236.4" class="st4" width="10" height="0.1"/>
			</g>
		</g>
		<g id="XMLID_250_">
			<g id="XMLID_251_">
				<g id="XMLID_297_">
					<path id="XMLID_298_" class="st4" d="M-499.8,237.6h0.3v1.1h0c0.1-0.3,0.4-0.4,0.6-0.4c0.5,0,0.6,0.3,0.6,0.8v1.4h-0.3v-1.5
						c0-0.3-0.1-0.4-0.4-0.4c-0.4,0-0.5,0.3-0.5,0.7v1.2h-0.3V237.6z"/>
				</g>
				<g id="XMLID_293_">
					<path id="XMLID_294_" class="st4" d="M-497,238.3c0.6,0,0.9,0.5,0.9,1.1c0,0.6-0.3,1.1-0.9,1.1c-0.6,0-0.9-0.5-0.9-1.1
						C-497.9,238.8-497.6,238.3-497,238.3z M-497,240.3c0.3,0,0.6-0.3,0.6-0.8c0-0.5-0.3-0.8-0.6-0.8c-0.3,0-0.6,0.3-0.6,0.8
						C-497.5,240-497.3,240.3-497,240.3z"/>
				</g>
				<g id="XMLID_290_">
					<path id="XMLID_291_" class="st4" d="M-495.3,238.4h0.4v0.3h-0.4v1.3c0,0.2,0,0.2,0.2,0.2h0.1v0.3h-0.2c-0.3,0-0.4-0.1-0.4-0.5
						v-1.4h-0.3v-0.3h0.3v-0.7h0.3V238.4z"/>
				</g>
				<g id="XMLID_286_">
					<path id="XMLID_287_" class="st4" d="M-493,239.9c-0.1,0.5-0.4,0.7-0.8,0.7c-0.6,0-0.9-0.5-0.9-1.1c0-0.7,0.4-1.1,0.9-1.1
						c0.6,0,0.8,0.7,0.8,1.2h-1.4c0,0.4,0.2,0.7,0.6,0.7c0.2,0,0.4-0.1,0.5-0.4H-493z M-493.3,239.3c0-0.3-0.2-0.6-0.5-0.6
						c-0.3,0-0.5,0.3-0.5,0.6H-493.3z"/>
				</g>
				<g id="XMLID_283_">
					<path id="XMLID_284_" class="st4" d="M-492.6,237.6h0.3v3h-0.3V237.6z"/>
				</g>
				<g id="XMLID_280_">
					<path id="XMLID_281_" class="st4" d="M-491.6,239.9c0,0.3,0.2,0.4,0.5,0.4c0.2,0,0.4-0.1,0.4-0.3c0-0.3-0.3-0.3-0.6-0.4
						c-0.3-0.1-0.6-0.2-0.6-0.6c0-0.4,0.4-0.6,0.7-0.6c0.4,0,0.7,0.2,0.7,0.7h-0.3c0-0.3-0.2-0.4-0.4-0.4c-0.2,0-0.4,0.1-0.4,0.3
						c0,0.3,0.3,0.3,0.6,0.4c0.3,0.1,0.6,0.2,0.6,0.6c0,0.5-0.4,0.7-0.8,0.7c-0.4,0-0.8-0.2-0.8-0.7H-491.6z"/>
				</g>
				<g id="XMLID_275_">
					<path id="XMLID_276_" class="st4" d="M-487.5,240.2c-0.2,0.3-0.4,0.4-0.7,0.4c-0.7,0-0.8-0.6-0.8-0.8c0-0.5,0.3-0.7,0.6-0.9
						c-0.1-0.2-0.3-0.4-0.3-0.7c0-0.3,0.2-0.6,0.6-0.6c0.3,0,0.6,0.2,0.6,0.6c0,0.4-0.2,0.6-0.5,0.8l0.5,0.7c0-0.1,0.1-0.3,0.1-0.5
						h0.3c0,0.4-0.1,0.5-0.2,0.7l0.5,0.7h-0.4L-487.5,240.2z M-488.3,239.1c-0.2,0.2-0.4,0.3-0.4,0.7c0,0.3,0.2,0.5,0.5,0.5
						c0.2,0,0.4-0.1,0.5-0.4L-488.3,239.1z M-487.8,238.2c0-0.2-0.1-0.3-0.3-0.3c-0.1,0-0.3,0.1-0.3,0.3c0,0.2,0.1,0.4,0.2,0.5
						C-488,238.6-487.8,238.4-487.8,238.2z"/>
				</g>
				<g id="XMLID_272_">
					<path id="XMLID_273_" class="st4" d="M-485.6,238.4h0.3v0.5h0c0.1-0.3,0.3-0.5,0.7-0.5v0.4c-0.5,0-0.7,0.3-0.7,0.9v1h-0.3
						V238.4z"/>
				</g>
				<g id="XMLID_268_">
					<path id="XMLID_269_" class="st4" d="M-482.8,239.9c-0.1,0.5-0.4,0.7-0.8,0.7c-0.6,0-0.9-0.5-0.9-1.1c0-0.7,0.4-1.1,0.9-1.1
						c0.6,0,0.8,0.7,0.8,1.2h-1.4c0,0.4,0.2,0.7,0.6,0.7c0.2,0,0.4-0.1,0.5-0.4H-482.8z M-483.1,239.3c0-0.3-0.2-0.6-0.5-0.6
						c-0.3,0-0.5,0.3-0.5,0.6H-483.1z"/>
				</g>
				<g id="XMLID_265_">
					<path id="XMLID_266_" class="st4" d="M-482.3,239.9c0,0.3,0.2,0.4,0.5,0.4c0.2,0,0.4-0.1,0.4-0.3c0-0.3-0.3-0.3-0.6-0.4
						c-0.3-0.1-0.6-0.2-0.6-0.6c0-0.4,0.4-0.6,0.7-0.6c0.4,0,0.7,0.2,0.7,0.7h-0.3c0-0.3-0.2-0.4-0.4-0.4c-0.2,0-0.4,0.1-0.4,0.3
						c0,0.3,0.3,0.3,0.6,0.4c0.3,0.1,0.6,0.2,0.6,0.6c0,0.5-0.4,0.7-0.8,0.7c-0.4,0-0.8-0.2-0.8-0.7H-482.3z"/>
				</g>
				<g id="XMLID_261_">
					<path id="XMLID_262_" class="st4" d="M-479.9,238.3c0.6,0,0.9,0.5,0.9,1.1c0,0.6-0.3,1.1-0.9,1.1c-0.6,0-0.9-0.5-0.9-1.1
						C-480.7,238.8-480.4,238.3-479.9,238.3z M-479.9,240.3c0.3,0,0.6-0.3,0.6-0.8c0-0.5-0.3-0.8-0.6-0.8c-0.3,0-0.6,0.3-0.6,0.8
						C-480.4,240-480.2,240.3-479.9,240.3z"/>
				</g>
				<g id="XMLID_258_">
					<path id="XMLID_259_" class="st4" d="M-478.6,238.4h0.3v0.5h0c0.1-0.3,0.3-0.5,0.7-0.5v0.4c-0.5,0-0.7,0.3-0.7,0.9v1h-0.3
						V238.4z"/>
				</g>
				<g id="XMLID_255_">
					<path id="XMLID_256_" class="st4" d="M-476.9,238.4h0.4v0.3h-0.4v1.3c0,0.2,0,0.2,0.2,0.2h0.1v0.3h-0.2c-0.3,0-0.4-0.1-0.4-0.5
						v-1.4h-0.3v-0.3h0.3v-0.7h0.3V238.4z"/>
				</g>
				<g id="XMLID_252_">
					<path id="XMLID_253_" class="st4" d="M-476,239.9c0,0.3,0.2,0.4,0.5,0.4c0.2,0,0.4-0.1,0.4-0.3c0-0.3-0.3-0.3-0.6-0.4
						c-0.3-0.1-0.6-0.2-0.6-0.6c0-0.4,0.4-0.6,0.7-0.6c0.4,0,0.7,0.2,0.7,0.7h-0.3c0-0.3-0.2-0.4-0.4-0.4c-0.2,0-0.4,0.1-0.4,0.3
						c0,0.3,0.3,0.3,0.6,0.4c0.3,0.1,0.6,0.2,0.6,0.6c0,0.5-0.4,0.7-0.8,0.7c-0.4,0-0.8-0.2-0.8-0.7H-476z"/>
				</g>
			</g>
		</g>
	</g>
	<g id="XMLID_171_" class="st1">
		<g id="XMLID_245_">
			<path id="XMLID_246_" class="st5" d="M-584.5,226.9c-0.2,0-0.4,0-0.6,0l0,0c-0.4,0-0.7,0-1.1,0l0,0c-0.2,0-0.4,0-0.6,0h-0.2v0.7
				h0.2c0.1,0,0.2,0,0.2,0.3v5c0,0.2,0,0.3-0.1,0.3h-0.2v0.7h0.2c0.2,0,0.4,0,0.6,0l0,0c0.4,0,0.8,0,1.1,0l0,0c0.2,0,0.4,0,0.6,0
				c2,0,3.4-1.3,3.4-3.3C-581.2,228.5-582.6,226.9-584.5,226.9z M-582.4,230.5c0,1.7-0.8,2.5-2.5,2.5c-0.6,0-0.6-0.1-0.6-0.3v-2.6
				c0-0.5,0-1.1,0-1.6l0-0.4c0-0.5,0-0.5,0.6-0.5C-583.4,227.7-582.4,228.8-582.4,230.5z"/>
		</g>
		<g id="XMLID_243_">
			<path id="XMLID_244_" class="st5" d="M-576.7,232.3l-0.1,0.2c-0.1,0.3-0.3,0.5-0.7,0.5h-1.5v-2.2h1.2c0.4,0,0.4,0.1,0.5,0.3
				l0.1,0.2h0.6l0-0.3c0-0.1,0-0.1,0-0.2c0-0.1,0-0.3,0-0.4c0-0.1,0-0.3,0-0.4c0-0.1,0-0.1,0-0.2l0-0.3h-0.6l0,0.2
				c0,0.2-0.1,0.3-0.5,0.3h-1.2v-0.7c0-0.2,0-0.9,0-1.4h1.1c0.7,0,0.8,0.3,0.8,0.4l0,0.2h0.6v-1.6h-0.5l-0.1,0.1c0,0,0,0-0.1,0h-3.5
				v0.7l0.2,0c0.1,0,0.1,0,0.2,0.2c0.1,0.3,0.1,1,0.1,2.5v2.5c0,0.3,0,0.3-0.2,0.3l-0.2,0v0.7h2.9c0.5,0,0.8,0,1,0.1l0.2,0.1
				l0.2-1.5L-576.7,232.3z"/>
		</g>
		<g id="XMLID_241_">
			<path id="XMLID_242_" class="st5" d="M-575.3,227.9l2.1,6l0,0.1h0.5l2.2-6c0.1-0.3,0.2-0.3,0.3-0.4l0.2,0v-0.7h-0.2
				c-0.1,0-0.2,0-0.4,0c-0.2,0-0.4,0-0.7,0c-0.1,0-0.2,0-0.4,0h-0.2v0.7l0.2,0c0.1,0,0.1,0,0.1,0c0,0,0,0.1,0,0.1c0,0,0,0.3-0.1,0.5
				l-1.2,3.5l-1.2-4c0-0.1,0-0.1,0-0.2c0,0,0,0,0.1,0l0.2,0v-0.7h-0.2c-0.1,0-0.3,0-0.4,0c-0.2,0-0.5,0-0.7,0c-0.1,0-0.3,0-0.4,0
				h-0.2v0.7l0.2,0C-575.4,227.6-575.4,227.6-575.3,227.9z"/>
		</g>
		<g id="XMLID_237_">
			<path id="XMLID_238_" class="st5" d="M-565.4,232.6l-1.8-5.7l0-0.1h-0.5l-2,5.7l0,0.1c-0.1,0.3-0.2,0.4-0.4,0.5l-0.2,0.1v0.6h0.2
				c0.1,0,0.3,0,0.4,0c0.2,0,0.4,0,0.6,0c0.1,0,0.2,0,0.3,0h0.2v-0.6l-0.2-0.1c-0.1-0.1-0.2-0.1-0.2-0.1c0-0.1,0-0.3,0-0.4l0.2-0.6
				h1.9l0.3,0.8c0,0.1,0,0.1,0.1,0.2c0,0-0.1,0.1-0.1,0.1l-0.2,0.1v0.6h0.2c0.1,0,0.3,0,0.4,0c0.2,0,0.4,0,0.7,0c0.1,0,0.3,0,0.4,0
				h0.2v-0.6l-0.2-0.1C-565.2,233-565.3,232.9-565.4,232.6z M-567,231.1h-1.3l0.7-2L-567,231.1z"/>
		</g>
		<g id="XMLID_233_">
			<path id="XMLID_234_" class="st5" d="M-559.8,232.9l-1.6-2.1c0.6-0.3,1.2-0.9,1.2-1.8c0-1.4-0.9-2.2-2.4-2.2c-0.2,0-0.5,0-0.8,0
				l-0.1,0c-0.2,0-0.5,0-0.7,0h-0.2v0.7h0.2c0.1,0,0.2,0,0.2,0.4c0,0.3,0,0.7,0,1c0,0.4,0,0.8,0,1.3v2.5c0,0.2,0,0.3-0.1,0.3h-0.2
				v0.7h0.2c0.1,0,0.2,0,0.3,0c0.3,0,0.5,0,0.8,0c0.1,0,0.2,0,0.3,0h0.2v-0.7h-0.2c-0.1,0-0.1-0.1-0.1-0.3v-1.8
				c0.2,0.1,0.3,0.2,0.4,0.4l1.3,1.8v0.5h0.2c0.1,0,0.2,0,0.3,0c0.2,0,0.4,0,0.6,0c0.1,0,0.2,0,0.3,0h0.2v-0.6l-0.2-0.1
				C-559.5,233.1-559.6,233.1-559.8,232.9z M-561.3,229c0,0.8-0.5,1.3-1.2,1.3c0,0-0.1,0-0.1,0V229c0-0.2,0-0.4,0-0.6
				c0-0.2,0-0.5,0-0.7c0,0,0,0,0,0c0,0,0.1,0,0.2,0C-561.8,227.7-561.3,228.2-561.3,229z"/>
		</g>
		<g id="XMLID_229_">
			<path id="XMLID_230_" class="st5" d="M-553.7,232.6l-1.8-5.8h-0.5l-2,5.7l0,0.1c-0.1,0.3-0.2,0.4-0.4,0.5l-0.2,0.1v0.6h0.2
				c0.1,0,0.3,0,0.4,0c0.2,0,0.4,0,0.6,0c0.1,0,0.2,0,0.3,0h0.2v-0.6l-0.2-0.1c-0.1-0.1-0.2-0.1-0.2-0.1c0-0.1,0-0.3,0-0.4l0.2-0.6
				h1.9l0.3,0.8c0,0.1,0,0.1,0.1,0.2c0,0-0.1,0.1-0.1,0.1l-0.1,0.1v0.6h0.2c0.1,0,0.3,0,0.4,0c0.2,0,0.5,0,0.7,0c0.1,0,0.3,0,0.4,0
				h0.2v-0.6l-0.2-0.1C-553.5,233-553.6,232.9-553.7,232.6z M-555.3,231.1h-1.4l0.7-2L-555.3,231.1z"/>
		</g>
		<g id="XMLID_227_">
			<path id="XMLID_228_" class="st5" d="M-546.7,226.9c-0.2,0-0.4,0-0.7,0c-0.1,0-0.3,0-0.5,0h-0.2v0.7l0.2,0
				c0.4,0.1,0.4,0.1,0.4,1.6v2.4l-3.1-3.6c-0.1-0.2-0.3-0.3-0.4-0.5c-0.1-0.2-0.2-0.3-0.4-0.5l-0.1-0.1h-0.5v5.8
				c0,0.3,0,0.4-0.3,0.5l-0.2,0.1v0.6h0.2c0.1,0,0.2,0,0.3,0c0.2,0,0.5,0,0.8,0c0.1,0,0.3,0,0.4,0h0.2v-0.6l-0.2,0
				c-0.3-0.1-0.4-0.1-0.4-0.9v-2.8l3.8,4.4l0.1,0.1h0.5v-5.8c0-0.3,0-0.4,0.4-0.5l0.2,0v-0.6h-0.2
				C-546.5,226.9-546.6,226.9-546.7,226.9z"/>
		</g>
		<g id="XMLID_223_">
			<path id="XMLID_224_" class="st5" d="M-540.4,233.2c-0.3-0.1-0.4-0.2-0.5-0.6l-1.8-5.7l0-0.1h-0.5l-2,5.7l0,0.1
				c-0.1,0.3-0.2,0.4-0.4,0.6l-0.2,0.1v0.6h0.2c0.1,0,0.3,0,0.4,0c0.2,0,0.4,0,0.6,0c0.1,0,0.2,0,0.3,0h0.2v-0.6l-0.2-0.1
				c-0.1-0.1-0.2-0.1-0.2-0.1c0-0.1,0-0.3,0-0.4l0.2-0.6h1.9l0.3,0.9c0,0.1,0,0.1,0,0.2c0,0-0.1,0.1-0.1,0.1l-0.2,0.1v0.6h0.2
				c0.1,0,0.3,0,0.4,0c0.2,0,0.4,0,0.7,0c0.1,0,0.3,0,0.4,0h0.2v-0.6L-540.4,233.2z M-542.5,231.1h-1.3l0.7-2L-542.5,231.1z"/>
		</g>
		<g id="XMLID_219_">
			<path id="XMLID_220_" class="st5" d="M-613.5,226.9c-0.2,0-0.4,0-0.6,0c-0.4,0-0.7,0-1.1,0l-0.1,0c-0.2,0-0.4,0-0.6,0h-0.2v0.7
				h0.2c0,0,0.2,0,0.2,0.3v4.9c0,0.3-0.1,0.3-0.1,0.3h-0.2v0.7h0.2c0.2,0,0.4,0,0.6,0l0,0c0.4,0,0.7,0,1.1,0l0,0c0.2,0,0.4,0,0.6,0
				c2,0,3.3-1.3,3.3-3.2C-610.1,228.5-611.5,226.9-613.5,226.9z M-611.4,230.5c0,1.7-0.8,2.5-2.5,2.5c-0.6,0-0.6-0.1-0.6-0.3v-2.6
				c0-0.5,0-1,0-1.5l0-0.4c0-0.5,0-0.5,0.6-0.5C-612.3,227.7-611.4,228.8-611.4,230.5z"/>
		</g>
		<g id="XMLID_217_">
			<path id="XMLID_218_" class="st5" d="M-603.9,232.8l0-4.9c0-0.3,0.1-0.3,0.1-0.3h0.2v-0.7h-0.2c-0.1,0-0.2,0-0.3,0
				c-0.2,0-0.4,0-0.7,0c-0.1,0-0.2,0-0.4,0h-0.2v0.7h0.2c0.1,0,0.2,0,0.2,0.3l0,4.3c-0.3,0.4-1,0.7-1.5,0.7c-0.6,0-1.3-0.4-1.3-1.6
				l0-3.4c0-0.3,0.1-0.3,0.1-0.3h0.2v-0.7h-0.2c-0.1,0-0.2,0-0.4,0c-0.2,0-0.5,0-0.8,0c-0.1,0-0.3,0-0.4,0h-0.2v0.7h0.2
				c0.1,0,0.2,0,0.2,0.3l0,3.4c0,1.6,0.9,2.6,2.2,2.6c0.6,0,1.2-0.3,1.7-0.6l-0.1,0.1v0.4h0.2c0.1,0,0.2,0,0.3,0c0.2,0,0.4,0,0.6,0
				c0.1,0,0.2,0,0.3,0h0.2v-0.7h-0.2C-603.8,233.1-603.9,233-603.9,232.8z"/>
		</g>
		<g id="XMLID_215_">
			<path id="XMLID_216_" class="st5" d="M-598.7,231.8c0-1.3-0.9-1.7-1.6-2c-0.7-0.3-1.2-0.5-1.2-1.3c0-0.7,0.6-0.9,1-0.9
				c0.4,0,0.9,0.2,1,0.7l0.1,0.2h0.6l0-1.6l-0.2,0c-0.2,0-0.4,0-0.6-0.1c-0.2,0-0.4-0.1-0.6-0.1c-1.4,0-2.2,0.8-2.2,2.1
				c0,1.4,0.9,1.8,1.7,2.1c0.6,0.3,1.2,0.5,1.2,1.2c0,0.8-0.7,0.9-1,0.9c-0.5,0-1-0.2-1.1-0.7l-0.1-0.2h-0.6l0,1.4l0.2,0.1
				c0.6,0.2,1.1,0.3,1.6,0.3C-599.5,233.9-598.7,233.1-598.7,231.8z"/>
		</g>
		<g id="XMLID_213_">
			<path id="XMLID_214_" class="st5" d="M-596.5,232.8l0-4.9c0-0.3,0.1-0.3,0.2-0.3h0.2v-0.7h-0.2c-0.1,0-0.2,0-0.4,0
				c-0.2,0-0.4,0-0.7,0c-0.1,0-0.2,0-0.4,0h-0.2v0.7h0.2c0.1,0,0.2,0,0.2,0.3l0,4.9c0,0.1-0.1,0.3-0.1,0.3h-0.2v0.7h0.2
				c0.1,0,0.2,0,0.3,0c0.2,0,0.5,0,0.8,0c0.1,0,0.2,0,0.3,0h0.2v-0.7h-0.2C-596.5,233.1-596.5,232.9-596.5,232.8z"/>
		</g>
		<g id="XMLID_211_">
			<path id="XMLID_212_" class="st5" d="M-590.2,226.8c-0.1,0-0.3,0.1-0.4,0.1c-0.3,0-0.7,0-1,0c-0.6,0-1.3,0-2,0c-0.3,0-0.7,0-1,0
				c-0.1,0-0.3,0-0.4-0.1l-0.4,0l0,1.7h0.5l0.1-0.2c0.1-0.3,0.2-0.5,0.6-0.5h0.9l0,4.9c0,0.2,0,0.2-0.4,0.3l-0.2,0v0.6h0.2
				c0.2,0,0.3,0,0.4,0c0.3,0,0.5,0,0.8,0c0.1,0,0.3,0,0.4,0h0.2v-0.6l-0.2-0.1c-0.4-0.1-0.4-0.1-0.4-0.3l0-4.9h0.9
				c0.4,0,0.5,0.1,0.6,0.5l0.1,0.2h0.5l0-1.7L-590.2,226.8L-590.2,226.8z"/>
		</g>
		<g id="XMLID_209_">
			<path id="XMLID_210_" class="st5" d="M-596.7,238.6c-0.1,0-0.1,0-0.2,0c0,0-0.1,0-0.2,0c-0.1,0-0.1,0-0.2,0h-0.1v0.2h0.1
				c0,0,0.1,0,0.1,0.2v0.8h-1.6V239c0-0.2,0.1-0.2,0.1-0.2h0.1v-0.2h-0.1c0,0-0.1,0-0.2,0c-0.1,0-0.1,0-0.2,0c0,0-0.1,0-0.2,0
				c-0.1,0-0.1,0-0.2,0h-0.1v0.1l0,0.1l0.1,0c0,0,0.1,0,0.1,0.1c0,0.1,0,0.2,0,0.4v1.7c0,0,0,0.1,0,0.1c0,0,0,0,0,0h-0.1v0.2h0.1
				c0,0,0,0,0.1,0c0.1,0,0.1,0,0.2,0c0,0,0.1,0,0.2,0c0.1,0,0.1,0,0.1,0h0.1v-0.2h-0.1c0,0-0.1,0-0.1-0.2v-0.9h1.6v0.9
				c0,0.2-0.1,0.2-0.1,0.2h-0.1v0.2h0.1c0,0,0.1,0,0.1,0c0.1,0,0.1,0,0.2,0c0,0,0.1,0,0.2,0c0.1,0,0.1,0,0.1,0h0.1v-0.2h-0.1
				c0,0,0,0-0.1,0c0,0,0-0.1,0-0.1v-1.7c0-0.2,0-0.3,0-0.4c0,0,0-0.1,0.1-0.1h0l0.1,0v-0.2h-0.1
				C-596.6,238.6-596.7,238.6-596.7,238.6z"/>
		</g>
		<g id="XMLID_205_">
			<path id="XMLID_206_" class="st5" d="M-594.3,238.6c-0.4,0-0.8,0.1-1,0.4c-0.3,0.3-0.4,0.6-0.4,1s0.1,0.8,0.4,1
				c0.3,0.3,0.6,0.4,1,0.4c0.4,0,0.8-0.1,1-0.4c0.3-0.3,0.4-0.6,0.4-1s-0.1-0.8-0.4-1C-593.5,238.7-593.9,238.6-594.3,238.6z
				 M-593.6,240.8c-0.2,0.2-0.4,0.3-0.7,0.3s-0.6-0.1-0.7-0.3c-0.2-0.2-0.2-0.5-0.2-0.8s0.1-0.6,0.2-0.8c0.2-0.2,0.4-0.3,0.7-0.3
				s0.6,0.1,0.7,0.3c0.2,0.2,0.2,0.5,0.2,0.8S-593.4,240.6-593.6,240.8z"/>
		</g>
		<g id="XMLID_203_">
			<path id="XMLID_204_" class="st5" d="M-589.8,238.6c-0.1,0-0.1,0-0.2,0c-0.1,0-0.3,0-0.5,0c-0.2,0-0.4,0-0.5,0
				c-0.1,0-0.3,0-0.5,0c-0.2,0-0.4,0-0.5,0c-0.1,0-0.1,0-0.2,0l0,0h-0.1l0,0.6h0.2l0,0c0-0.1,0.1-0.1,0.1-0.2c0,0,0.1,0,0.2,0h0.5
				l0,2.1c0,0,0,0.1,0,0.1c0,0-0.1,0-0.2,0.1l-0.1,0v0.2h0.1c0,0,0.1,0,0.2,0c0.1,0,0.2,0,0.2,0c0,0,0.1,0,0.2,0c0.1,0,0.2,0,0.2,0
				h0.1v-0.2l-0.1,0c-0.1,0-0.2-0.1-0.2-0.1c0,0,0-0.1,0-0.1l0-2.1h0.5c0.1,0,0.2,0,0.2,0c0,0,0.1,0.1,0.1,0.2l0,0h0.2l0-0.6
				L-589.8,238.6L-589.8,238.6z"/>
		</g>
		<g id="XMLID_201_">
			<path id="XMLID_202_" class="st5" d="M-587.4,240.9c-0.1,0.1-0.2,0.2-0.4,0.2h-0.7v-1h0.6c0.1,0,0.2,0,0.2,0c0,0,0.1,0.1,0.1,0.1
				l0,0.1h0.2l0-0.1c0-0.2,0-0.2,0-0.3c0,0,0,0,0-0.3l0-0.1h-0.2l0,0.1c0,0.1,0,0.1-0.1,0.1c0,0-0.1,0-0.2,0h-0.6v-0.3
				c0-0.3,0-0.5,0-0.6h0.5c0.4,0,0.4,0.2,0.4,0.2l0,0.1h0.2v-0.6h-0.2l0,0c0,0,0,0-0.1,0h-1.6v0.2l0.1,0c0.1,0,0.1,0,0.1,0
				c0,0,0,0.1,0,0.3c0,0.1,0,0.4,0,0.8v1.1c0,0.1,0,0.1,0,0.1c0,0,0,0-0.1,0l-0.1,0v0.2h1.3c0.2,0,0.4,0,0.5,0l0.1,0l0.1-0.6
				L-587.4,240.9L-587.4,240.9z"/>
		</g>
		<g id="XMLID_199_">
			<path id="XMLID_200_" class="st5" d="M-584.7,240.8c0,0.1-0.1,0.2-0.2,0.2c-0.1,0-0.2,0.1-0.3,0.1h-0.7c0-0.1,0-0.3,0-0.5
				c0-0.3,0-0.4,0-0.6c0-0.1,0-0.3,0-0.6c0-0.3,0-0.4,0-0.5c0-0.2,0.1-0.2,0.1-0.2h0.1v-0.2h-0.1c0,0-0.1,0-0.2,0
				c-0.1,0-0.1,0-0.2,0c0,0-0.1,0-0.2,0c-0.1,0-0.1,0-0.2,0h-0.1v0.2l0.1,0c0.1,0,0.1,0,0.1,0c0,0,0,0.1,0.1,0.3c0,0.2,0,0.5,0,0.9
				v1c0,0.2-0.1,0.2-0.1,0.2h-0.1v0.2h0.1c0.1,0,0.2,0,0.4,0c0.2,0,0.3,0,0.4,0c0.6,0,0.8,0,0.8,0l0.1,0l0.1-0.6L-584.7,240.8
				L-584.7,240.8z"/>
		</g>
		<g id="XMLID_197_">
			<path id="XMLID_198_" class="st5" d="M-582.6,240L-582.6,240c-0.2-0.1-0.4-0.2-0.6-0.3c-0.2-0.1-0.3-0.3-0.3-0.5
				c0-0.1,0.1-0.2,0.2-0.3c0.1-0.1,0.2-0.1,0.4-0.1c0.1,0,0.2,0,0.3,0.1c0.1,0.1,0.2,0.1,0.2,0.2l0,0h0.2l0-0.6l-0.1,0
				c-0.1,0-0.2,0-0.3,0c-0.1,0-0.2,0-0.3,0c-0.3,0-0.5,0.1-0.7,0.2c-0.2,0.1-0.3,0.4-0.3,0.7c0,0.3,0.1,0.5,0.4,0.7l0,0
				c0.2,0.1,0.4,0.2,0.6,0.3c0.2,0.1,0.3,0.2,0.3,0.4c0,0.1,0,0.2-0.1,0.3c-0.1,0.1-0.2,0.1-0.4,0.1c-0.1,0-0.2,0-0.4-0.1
				c-0.1-0.1-0.2-0.1-0.2-0.3l0,0h-0.2l0,0.5l0,0c0.3,0.1,0.5,0.1,0.7,0.1c0.3,0,0.5-0.1,0.6-0.2c0.2-0.2,0.3-0.4,0.3-0.6
				C-582.2,240.3-582.3,240.1-582.6,240z"/>
		</g>
		<g id="XMLID_192_">
			<path id="XMLID_193_" class="st5" d="M-578.1,241.2c-0.1,0-0.1-0.1-0.2-0.2c0,0-0.1-0.1-0.2-0.2c0,0,0.1-0.1,0.1-0.2
				c0.1-0.2,0.1-0.2,0.1-0.2c0,0,0.1-0.1,0.2-0.1l0.1,0v-0.2l-0.3,0l-0.3,0v0.2l0.1,0c0.1,0,0.1,0,0.1,0c0,0,0,0,0,0.1
				c0,0,0,0.1,0,0.2c0,0,0,0.1,0,0.1l-0.4-0.4c0.1,0,0.1-0.1,0.2-0.2c0.1-0.1,0.1-0.2,0.1-0.3c0-0.1-0.1-0.3-0.2-0.3
				c-0.1-0.1-0.2-0.1-0.3-0.1c-0.1,0-0.3,0.1-0.4,0.1c-0.1,0.1-0.1,0.2-0.1,0.3c0,0.1,0.1,0.3,0.2,0.4c-0.2,0.1-0.4,0.3-0.4,0.6
				c0,0.2,0.1,0.3,0.2,0.4c0.1,0.1,0.3,0.2,0.4,0.2c0.2,0,0.4-0.1,0.6-0.3l0.2,0.3l0,0c0.1,0,0.2,0,0.2,0c0.1,0,0.1,0,0.2,0l0.1,0
				v-0.2l-0.1,0C-578.1,241.2-578.1,241.2-578.1,241.2z M-579.5,239.6c0,0,0.1,0,0.1,0c0.1,0,0.1,0,0.1,0c0,0,0,0.1,0,0.1
				c0,0.1-0.1,0.2-0.2,0.3c-0.1-0.1-0.1-0.1-0.1-0.1c0-0.1-0.1-0.1-0.1-0.2C-579.5,239.7-579.5,239.7-579.5,239.6z M-579.3,241.1
				c-0.1,0-0.2,0-0.3-0.1c-0.1-0.1-0.1-0.2-0.1-0.3c0-0.1,0.1-0.2,0.2-0.3l0.6,0.5C-579,241.1-579.1,241.1-579.3,241.1z"/>
		</g>
		<g id="XMLID_188_">
			<path id="XMLID_189_" class="st5" d="M-573.8,241.1l-0.8-0.9c0.1-0.1,0.3-0.1,0.4-0.2c0.1-0.1,0.2-0.3,0.2-0.5
				c0-0.3-0.1-0.5-0.3-0.7c-0.2-0.1-0.4-0.2-0.7-0.2c-0.1,0-0.2,0-0.4,0c-0.2,0-0.3,0-0.3,0h-0.1v0.2h0.1c0.1,0,0.1,0,0.1,0
				c0,0,0,0.1,0,0.2c0,0.1,0,0.2,0,0.5c0,0.2,0,0.4,0,0.5v1c0,0.2-0.1,0.2-0.1,0.2h-0.1v0.2h0.1c0,0,0.1,0,0.2,0c0.1,0,0.1,0,0.2,0
				c0,0,0.1,0,0.2,0c0.1,0,0.1,0,0.2,0h0.1v-0.2h-0.1c0,0-0.1,0-0.1-0.2v-0.8c0.1,0,0.2,0.1,0.3,0.2l0.6,0.8l0,0v0.2h0.1
				c0,0,0.1,0,0.2,0c0.1,0,0.1,0,0.1,0s0.1,0,0.1,0c0.1,0,0.1,0,0.2,0h0.1v-0.2l0,0C-573.7,241.2-573.8,241.1-573.8,241.1z
				 M-575.1,240c0,0,0,0-0.1,0v-0.5c0-0.1,0-0.1,0-0.3c0-0.1,0-0.2,0-0.3c0,0,0,0,0-0.1c0,0,0,0,0.1,0c0.2,0,0.3,0.1,0.4,0.2
				c0.1,0.1,0.2,0.2,0.2,0.4c0,0.2-0.1,0.3-0.2,0.4C-574.7,239.9-574.9,240-575.1,240z"/>
		</g>
		<g id="XMLID_186_">
			<path id="XMLID_187_" class="st5" d="M-571.4,240.9c-0.1,0.1-0.2,0.2-0.4,0.2h-0.7v-1h0.6c0.1,0,0.2,0,0.2,0c0,0,0.1,0.1,0.1,0.1
				l0,0.1h0.2l0-0.1c0-0.2,0-0.2,0-0.3c0,0,0-0.1,0-0.3l0-0.1h-0.2l0,0.1c0,0.1,0,0.1-0.1,0.1c0,0-0.1,0-0.2,0h-0.6v-0.3
				c0-0.3,0-0.5,0-0.6h0.5c0.4,0,0.4,0.2,0.4,0.2l0,0.1h0.2v-0.6h-0.2l0,0c0,0,0,0-0.1,0h-1.6v0.2l0.1,0c0.1,0,0.1,0,0.1,0
				c0,0,0,0.1,0,0.3c0,0.1,0,0.4,0,0.8v1.1c0,0.1,0,0.1,0,0.1c0,0,0,0-0.1,0l-0.1,0v0.2h1.3c0.2,0,0.4,0,0.5,0l0.1,0l0.1-0.6
				L-571.4,240.9L-571.4,240.9z"/>
		</g>
		<g id="XMLID_184_">
			<path id="XMLID_185_" class="st5" d="M-569.1,240L-569.1,240c-0.2-0.1-0.4-0.2-0.6-0.3c-0.2-0.1-0.3-0.3-0.3-0.5
				c0-0.1,0.1-0.2,0.2-0.3c0.1-0.1,0.2-0.1,0.4-0.1c0.1,0,0.2,0,0.3,0.1c0.1,0.1,0.2,0.1,0.2,0.2l0,0h0.2l0-0.6l-0.1,0
				c-0.1,0-0.2,0-0.3,0c-0.1,0-0.2,0-0.3,0c-0.3,0-0.5,0.1-0.7,0.2c-0.2,0.1-0.3,0.4-0.3,0.7c0,0.3,0.1,0.5,0.4,0.7l0,0
				c0.2,0.1,0.4,0.2,0.6,0.3c0.2,0.1,0.3,0.2,0.3,0.4c0,0.1,0,0.2-0.1,0.3c-0.1,0.1-0.2,0.1-0.4,0.1c-0.1,0-0.2,0-0.4-0.1
				c-0.1-0.1-0.2-0.1-0.2-0.3l0,0h-0.2l0,0.5l0,0c0.3,0.1,0.5,0.1,0.7,0.1c0.3,0,0.5-0.1,0.6-0.2c0.2-0.2,0.3-0.4,0.3-0.6
				C-568.8,240.3-568.9,240.1-569.1,240z"/>
		</g>
		<g id="XMLID_180_">
			<path id="XMLID_181_" class="st5" d="M-566.5,238.6c-0.4,0-0.8,0.1-1,0.4c-0.3,0.3-0.4,0.6-0.4,1s0.1,0.8,0.4,1
				c0.3,0.3,0.6,0.4,1,0.4c0.4,0,0.8-0.1,1-0.4c0.3-0.3,0.4-0.6,0.4-1s-0.1-0.8-0.4-1C-565.8,238.7-566.1,238.6-566.5,238.6z
				 M-565.8,240.8c-0.2,0.2-0.4,0.3-0.7,0.3s-0.6-0.1-0.7-0.3c-0.2-0.2-0.2-0.5-0.2-0.8s0.1-0.6,0.2-0.8c0.2-0.2,0.4-0.3,0.7-0.3
				c0.3,0,0.6,0.1,0.7,0.3c0.2,0.2,0.2,0.5,0.2,0.8S-565.7,240.6-565.8,240.8z"/>
		</g>
		<g id="XMLID_176_">
			<path id="XMLID_177_" class="st5" d="M-562.3,241.1l-0.8-0.9c0.1-0.1,0.3-0.1,0.4-0.2c0.1-0.1,0.2-0.3,0.2-0.5
				c0-0.3-0.1-0.5-0.3-0.7c-0.2-0.1-0.4-0.2-0.7-0.2c-0.1,0-0.2,0-0.4,0c-0.2,0-0.3,0-0.3,0h-0.1v0.2h0.1c0.1,0,0.1,0,0.1,0
				c0,0,0,0.1,0,0.2c0,0.1,0,0.2,0,0.5c0,0.2,0,0.4,0,0.5v1c0,0.2-0.1,0.2-0.1,0.2h-0.1v0.2h0.1c0,0,0.1,0,0.2,0c0.1,0,0.1,0,0.2,0
				c0,0,0.1,0,0.2,0c0.1,0,0.1,0,0.2,0h0.1v-0.2h-0.1c0,0-0.1,0-0.1-0.2v-0.8c0.1,0,0.2,0.1,0.3,0.2l0.6,0.8l0,0v0.2h0.1
				c0,0,0.1,0,0.2,0c0.1,0,0.1,0,0.1,0s0.1,0,0.1,0c0.1,0,0.1,0,0.2,0h0.1v-0.2l0,0C-562.2,241.2-562.3,241.1-562.3,241.1z
				 M-563.6,240c0,0,0,0-0.1,0v-0.5c0-0.1,0-0.1,0-0.3c0-0.1,0-0.2,0-0.3c0,0,0,0,0-0.1c0,0,0,0,0.1,0c0.2,0,0.3,0.1,0.4,0.2
				c0.1,0.1,0.2,0.2,0.2,0.4c0,0.2-0.1,0.3-0.2,0.4C-563.2,239.9-563.4,240-563.6,240z"/>
		</g>
		<g id="XMLID_174_">
			<path id="XMLID_175_" class="st5" d="M-559.3,238.6c-0.1,0-0.1,0-0.2,0c-0.1,0-0.3,0-0.5,0c-0.2,0-0.4,0-0.5,0
				c-0.1,0-0.3,0-0.5,0c-0.2,0-0.4,0-0.5,0c-0.1,0-0.1,0-0.2,0l0,0h-0.1l0,0.6h0.2l0,0c0-0.1,0.1-0.1,0.1-0.2c0,0,0.1,0,0.2,0h0.5
				l0,2.1c0,0,0,0.1,0,0.1c0,0-0.1,0-0.2,0.1l-0.1,0v0.2h0.1c0,0,0.1,0,0.2,0c0.1,0,0.2,0,0.2,0s0.1,0,0.2,0c0.1,0,0.2,0,0.2,0h0.1
				v-0.2l-0.1,0c-0.1,0-0.2-0.1-0.2-0.1c0,0,0-0.1,0-0.1l0-2.1h0.5c0.1,0,0.2,0,0.2,0c0,0,0.1,0.1,0.1,0.2l0,0h0.2l0-0.6
				L-559.3,238.6L-559.3,238.6z"/>
		</g>
		<g id="XMLID_172_">
			<path id="XMLID_173_" class="st5" d="M-557.2,240L-557.2,240c-0.2-0.1-0.4-0.2-0.6-0.3c-0.2-0.1-0.3-0.3-0.3-0.5
				c0-0.1,0.1-0.2,0.2-0.3c0.1-0.1,0.2-0.1,0.4-0.1c0.1,0,0.2,0,0.3,0.1c0.1,0.1,0.2,0.1,0.2,0.2l0,0h0.2l0-0.6l-0.1,0
				c-0.1,0-0.2,0-0.3,0c-0.1,0-0.2,0-0.3,0c-0.3,0-0.5,0.1-0.7,0.2c-0.2,0.1-0.3,0.4-0.3,0.7c0,0.3,0.1,0.5,0.4,0.7l0,0
				c0.2,0.1,0.4,0.2,0.6,0.3c0.2,0.1,0.3,0.2,0.3,0.4c0,0.1,0,0.2-0.1,0.3c-0.1,0.1-0.2,0.1-0.4,0.1c-0.1,0-0.2,0-0.4-0.1
				c-0.1-0.1-0.2-0.1-0.2-0.3l0,0h-0.2l0,0.5l0,0c0.3,0.1,0.5,0.1,0.7,0.1c0.3,0,0.5-0.1,0.6-0.2c0.2-0.2,0.3-0.4,0.3-0.6
				C-556.8,240.3-557,240.1-557.2,240z"/>
		</g>
	</g>
	<g id="XMLID_72_" class="st1">
		<g id="XMLID_122_">
			<g id="XMLID_167_">
				<path id="XMLID_168_" class="st6" d="M-430.4,233.6c0.4-0.2,0.8-0.4,1-0.7c0.3-0.3,0.5-0.7,0.6-1.1c0.1-0.5,0.2-1,0.2-1.6
					c0-1.1-0.3-2-0.9-2.5c-0.6-0.5-1.4-0.8-2.5-0.8h-2.4v7h2.4C-431.3,233.9-430.8,233.8-430.4,233.6z M-433.6,227.3h1.8
					c0.5,0,0.9,0.1,1.2,0.2c0.3,0.1,0.6,0.3,0.8,0.6c0.2,0.3,0.4,0.6,0.4,0.9c0.1,0.4,0.1,0.8,0.1,1.2c0,0.5,0,0.9-0.1,1.2
					c-0.1,0.3-0.2,0.6-0.4,0.8c-0.2,0.2-0.3,0.4-0.5,0.5c-0.2,0.1-0.4,0.2-0.6,0.3c-0.2,0.1-0.4,0.1-0.6,0.1c-0.2,0-0.3,0-0.4,0
					h-1.8V227.3z"/>
			</g>
			<g id="XMLID_165_">
				<path id="XMLID_166_" class="st6" d="M-426.9,233.2c0.5,0.4,1.2,0.6,2.1,0.6c0.9,0,1.5-0.2,2-0.6c0.5-0.4,0.7-1.1,0.7-2v-4.4
					h-0.7v4.4c0,0.7-0.2,1.2-0.5,1.6c-0.3,0.4-0.8,0.5-1.5,0.5c-0.7,0-1.2-0.2-1.6-0.5c-0.4-0.4-0.6-0.9-0.6-1.6v-4.4h-0.7v4.4
					C-427.6,232.1-427.4,232.8-426.9,233.2z"/>
			</g>
			<g id="XMLID_163_">
				<polygon id="XMLID_164_" class="st6" points="-408.3,226.8 -413.9,226.8 -413.9,227.3 -411.4,227.3 -411.4,233.8 -410.7,233.8 
					-410.7,227.3 -408.3,227.3 				"/>
			</g>
			<g id="XMLID_161_">
				<path id="XMLID_162_" class="st6" d="M-416.9,233.2c0.4-0.3,0.6-0.7,0.6-1.3c0-0.4-0.1-0.8-0.4-1c-0.2-0.2-0.7-0.4-1.2-0.5
					c0,0-0.2,0-0.3-0.1c-0.3-0.1-0.7-0.1-1-0.2c-0.5-0.1-0.8-0.2-1-0.3c-0.4-0.3-0.4-0.7-0.4-1c0-0.3,0.1-0.8,0.4-1.1
					c0.3-0.3,0.6-0.4,1.2-0.4c0.8-0.1,1.3,0.3,1.8,0.7l0.1,0.1l0.3-0.4c-0.6-0.4-1.2-0.9-2.1-0.9c-0.7,0-1.2,0.1-1.7,0.6
					c-0.5,0.4-0.5,1.3-0.5,1.5c0,0.2,0.1,0.9,0.5,1.3c0.4,0.3,1,0.5,1.4,0.6c0.9,0.1,1.5,0.3,1.7,0.4c0.4,0.1,0.6,0.6,0.6,0.9
					c0,0.3-0.1,0.6-0.5,0.9c-0.4,0.3-0.8,0.4-1.3,0.4c-0.8,0-1.5-0.2-2.2-0.7l-0.3,0.4c0.7,0.5,1.5,0.8,2.5,0.8
					C-418,233.8-417.4,233.6-416.9,233.2z"/>
			</g>
			<g id="XMLID_159_">
				<rect id="XMLID_160_" x="-415.3" y="226.8" class="st6" width="0.7" height="7"/>
			</g>
			<g id="XMLID_123_">
				<g id="XMLID_124_">
					<g id="XMLID_154_">
						<g id="XMLID_155_">
							<path id="XMLID_156_" class="st7" d="M-397.2,233.9h-1l-1.1-3.2h-1.9v3.2h-1v-7h3.4c0.5,0,0.9,0.3,1.1,0.6
								c0.3,0.3,0.4,0.8,0.4,1.4c0,0.4-0.1,1-0.3,1.3c-0.2,0.3-0.4,0.5-0.7,0.5L-397.2,233.9z M-401.3,229.7h2.3
								c0.4,0,0.6-0.5,0.6-0.9c0-0.5-0.2-0.9-0.7-0.9h-2.3V229.7z"/>
						</g>
					</g>
					<g id="XMLID_150_">
						<g id="XMLID_151_">
							<path id="XMLID_152_" class="st7" d="M-395.7,233.9h-1v-7h1V233.9z"/>
						</g>
					</g>
					<g id="XMLID_146_">
						<g id="XMLID_147_">
							<path id="XMLID_148_" class="st7" d="M-389.9,233.9h-1.2l-2.8-5.2v5.2h-1v-7l1.1,0l2.9,5.3v-5.3h1V233.9z"/>
						</g>
					</g>
					<g id="XMLID_142_">
						<g id="XMLID_143_">
							<path id="XMLID_144_" class="st7" d="M-386.6,233.9c-0.7,0-1.4-0.3-2-0.9c-0.6-0.7-0.9-1.9-0.9-2.6c0-0.9,0.3-2.1,0.9-2.7
								c0.6-0.6,1.3-0.8,1.9-0.8c1,0,1.9,0.5,2.5,1.4l0.2,0.2l-0.9,0.4l-0.1-0.1c-0.3-0.4-0.8-0.9-1.6-0.9c-0.5,0-1,0.3-1.3,0.6
								c-0.4,0.5-0.5,1.2-0.5,1.8c0,0.5,0.1,1.3,0.5,1.8c0.3,0.4,0.8,0.7,1.3,0.7c0.6,0,1.2-0.3,1.6-0.8l0.1-0.2l0.8,0.6l-0.1,0.2
								c-0.3,0.4-0.6,0.7-1,0.9C-385.6,233.8-386,233.9-386.6,233.9z"/>
						</g>
					</g>
					<g id="XMLID_138_">
						<g id="XMLID_139_">
							<path id="XMLID_140_" class="st7" d="M-378.8,233.9h-4.7v-7h4.5v1h-3.5v1.9h2.4v1h-2.4v1.9h3.7V233.9z"/>
						</g>
					</g>
					<g id="XMLID_134_">
						<g id="XMLID_135_">
							<path id="XMLID_136_" class="st7" d="M-375.6,233.9c-1,0-1.8-0.3-2.5-0.8l-0.1-0.1l0.5-0.8l0.2,0.1c0.6,0.4,1.3,0.6,2,0.6
								c0.4,0,0.7-0.1,1-0.3c0.3-0.2,0.3-0.4,0.3-0.6c0-0.2-0.1-0.5-0.4-0.6c-0.2-0.1-0.8-0.2-1.5-0.3c-0.4-0.1-1-0.2-1.5-0.6
								c-0.5-0.4-0.6-1.1-0.6-1.4c0-0.3,0.1-1.1,0.6-1.6c0.6-0.5,1.1-0.6,1.8-0.6c0.9,0,1.5,0.4,2.1,0.9l0.2,0.1l-0.6,0.8l-0.3-0.2
								c-0.5-0.4-0.9-0.6-1.5-0.6c-0.5,0-0.8,0.1-0.9,0.3c-0.2,0.2-0.3,0.5-0.3,0.8c0,0.3,0,0.5,0.3,0.7c0,0,0.2,0.1,0.8,0.3
								c0.3,0.1,0.7,0.1,1,0.2c0.2,0,0.3,0.1,0.3,0.1c0.5,0.1,1,0.3,1.2,0.6c0.3,0.3,0.4,0.7,0.4,1.2c0,0.6-0.2,1.1-0.6,1.4
								C-374.3,233.6-374.9,233.9-375.6,233.9z"/>
						</g>
					</g>
					<g id="XMLID_130_">
						<g id="XMLID_131_">
							<path id="XMLID_132_" class="st7" d="M-369.9,233.9c-1,0-1.8-0.3-2.5-0.8l-0.1-0.1l0.5-0.8l0.2,0.1c0.6,0.4,1.3,0.6,2,0.6
								c0.4,0,0.7-0.1,1-0.3c0.3-0.2,0.3-0.4,0.3-0.6c0-0.2-0.1-0.5-0.4-0.6c-0.2-0.1-0.8-0.2-1.5-0.3c-0.4-0.1-1-0.2-1.5-0.6
								c-0.5-0.4-0.6-1.1-0.6-1.4c0-0.3,0.1-1.1,0.6-1.6c0.6-0.5,1.1-0.6,1.8-0.6c0.9,0,1.5,0.4,2.1,0.9l0.2,0.1l-0.6,0.8l-0.3-0.2
								c-0.5-0.4-0.9-0.6-1.5-0.6c-0.5,0-0.8,0.1-0.9,0.3c-0.2,0.2-0.3,0.5-0.3,0.8c0,0.3,0,0.5,0.3,0.7c0.1,0.1,0.2,0.2,0.8,0.3
								c0.3,0.1,0.7,0.1,1,0.2c0.2,0,0.3,0.1,0.3,0.1c0.5,0.1,1,0.3,1.2,0.6c0.3,0.3,0.4,0.7,0.4,1.2c0,0.6-0.2,1.1-0.6,1.4
								C-368.7,233.6-369.3,233.9-369.9,233.9z"/>
						</g>
					</g>
					<g id="XMLID_125_">
						<g id="XMLID_126_">
							<path id="XMLID_127_" class="st7" d="M-406.7,233.9h-1v-7h2.7c0.7,0,1.2,0.2,1.5,0.5c0.4,0.3,0.5,0.8,0.5,1.4
								c0,0.6-0.2,1-0.5,1.4c-0.4,0.3-0.9,0.5-1.5,0.5l-1.7,0V233.9z M-406.7,229.7l1.7,0c0.4,0,0.7-0.1,0.8-0.2
								c0.2-0.1,0.3-0.4,0.3-0.7c0-0.3-0.1-0.6-0.3-0.7c-0.2-0.2-0.5-0.2-0.9-0.2h-1.6V229.7z"/>
						</g>
					</g>
				</g>
			</g>
		</g>
		<g id="XMLID_73_">
			<g id="XMLID_119_">
				<path id="XMLID_120_" class="st7" d="M-419.4,238.6h0.4v2.9h-0.4v-1.3h-1.6v1.3h-0.4v-2.9h0.4v1.3h1.6V238.6z"/>
			</g>
			<g id="XMLID_115_">
				<path id="XMLID_116_" class="st7" d="M-416.6,238.5c0.4,0,0.8,0.1,1.1,0.4c0.3,0.3,0.4,0.6,0.4,1.1c0,0.4-0.2,0.8-0.5,1.1
					c-0.3,0.3-0.7,0.4-1.1,0.4c-0.4,0-0.8-0.1-1.1-0.4c-0.3-0.3-0.4-0.6-0.4-1.1c0-0.4,0.1-0.8,0.4-1.1
					C-417.5,238.7-417.1,238.5-416.6,238.5z M-416.6,238.9c-0.3,0-0.6,0.1-0.8,0.3c-0.2,0.2-0.3,0.5-0.3,0.8c0,0.3,0.1,0.6,0.3,0.8
					c0.2,0.2,0.5,0.3,0.8,0.3c0.3,0,0.6-0.1,0.8-0.3c0.2-0.2,0.3-0.5,0.3-0.8c0-0.3-0.1-0.6-0.3-0.8
					C-416,239-416.3,238.9-416.6,238.9z"/>
			</g>
			<g id="XMLID_112_">
				<path id="XMLID_113_" class="st7" d="M-414.8,238.6h2.4v0.4h-1v2.5h-0.4v-2.5h-1V238.6z"/>
			</g>
			<g id="XMLID_109_">
				<path id="XMLID_110_" class="st7" d="M-411.6,238.6h1.6v0.4h-1.2v0.9h1.2v0.4h-1.2v0.9h1.3v0.4h-1.7V238.6z"/>
			</g>
			<g id="XMLID_106_">
				<path id="XMLID_107_" class="st7" d="M-409.2,238.6h0.4v2.5h1.3v0.4h-1.7V238.6z"/>
			</g>
			<g id="XMLID_103_">
				<path id="XMLID_104_" class="st7" d="M-406,240.3l-0.3-0.2c-0.2-0.1-0.3-0.2-0.4-0.4c-0.1-0.1-0.1-0.3-0.1-0.4
					c0-0.2,0.1-0.4,0.2-0.6c0.2-0.1,0.4-0.2,0.6-0.2c0.2,0,0.5,0.1,0.7,0.2v0.5c-0.2-0.2-0.4-0.3-0.7-0.3c-0.1,0-0.2,0-0.3,0.1
					c-0.1,0.1-0.1,0.1-0.1,0.2c0,0.1,0,0.2,0.1,0.2c0.1,0.1,0.2,0.2,0.3,0.2l0.3,0.2c0.4,0.2,0.5,0.5,0.5,0.8c0,0.2-0.1,0.4-0.2,0.6
					c-0.2,0.1-0.4,0.2-0.6,0.2c-0.3,0-0.5-0.1-0.8-0.3v-0.5c0.2,0.3,0.5,0.4,0.8,0.4c0.1,0,0.2,0,0.3-0.1c0.1-0.1,0.1-0.2,0.1-0.3
					C-405.6,240.6-405.8,240.4-406,240.3z"/>
			</g>
			<g id="XMLID_98_">
				<path id="XMLID_99_" class="st7" d="M-401.2,241.5l-0.3-0.4c0,0-0.1,0.1-0.2,0.1l0,0c-0.1,0.1-0.2,0.2-0.4,0.2
					c-0.1,0.1-0.3,0.1-0.4,0.1c-0.2,0-0.4-0.1-0.5-0.2s-0.2-0.3-0.2-0.5c0-0.1,0-0.3,0.1-0.4c0.1-0.1,0.2-0.2,0.3-0.3l0,0
					c0.1-0.1,0.2-0.1,0.2-0.2c-0.2-0.2-0.3-0.5-0.3-0.7c0-0.2,0.1-0.4,0.2-0.5c0.1-0.1,0.3-0.2,0.5-0.2c0.2,0,0.4,0.1,0.5,0.2
					c0.1,0.1,0.2,0.3,0.2,0.5c0,0.3-0.2,0.5-0.5,0.7l0,0l0.4,0.5c0.1-0.1,0.2-0.3,0.3-0.5h0.4c-0.1,0.3-0.3,0.5-0.5,0.8l0.6,0.7
					H-401.2z M-401.9,240.9L-401.9,240.9l-0.4-0.6l-0.2,0.1c-0.2,0.1-0.3,0.3-0.3,0.4c0,0.1,0,0.2,0.1,0.2c0.1,0.1,0.2,0.1,0.3,0.1
					c0.1,0,0.2,0,0.3-0.1C-402,241-401.9,241-401.9,240.9z M-402.1,239.8l0.2-0.1c0.1-0.1,0.2-0.2,0.2-0.4c0-0.1,0-0.2-0.1-0.2
					c-0.1-0.1-0.1-0.1-0.2-0.1c-0.1,0-0.2,0-0.2,0.1c-0.1,0.1-0.1,0.1-0.1,0.2c0,0.1,0,0.2,0.1,0.2
					C-402.3,239.6-402.2,239.7-402.1,239.8z"/>
			</g>
			<g id="XMLID_94_">
				<path id="XMLID_95_" class="st7" d="M-398.5,241.5v-2.9h0.7c0.3,0,0.5,0.1,0.7,0.2c0.2,0.1,0.3,0.3,0.3,0.6c0,0.2,0,0.3-0.1,0.4
					c-0.1,0.1-0.2,0.2-0.4,0.3c0.1,0.1,0.2,0.1,0.3,0.2c0.1,0.1,0.2,0.3,0.4,0.6c0.1,0.2,0.2,0.3,0.2,0.4l0.2,0.2h-0.5l-0.1-0.2
					c0,0,0,0,0,0l-0.1-0.1l-0.1-0.2l-0.1-0.2c-0.1-0.1-0.2-0.2-0.2-0.3c-0.1-0.1-0.1-0.1-0.2-0.2c-0.1,0-0.2,0-0.3,0h-0.1v1.3
					H-398.5z M-397.9,238.9h-0.1v0.9h0.2c0.2,0,0.4,0,0.4-0.1c0.1,0,0.1-0.1,0.2-0.2c0-0.1,0.1-0.2,0.1-0.2c0-0.1,0-0.2-0.1-0.2
					c0-0.1-0.1-0.1-0.2-0.2C-397.6,238.9-397.7,238.9-397.9,238.9z"/>
			</g>
			<g id="XMLID_91_">
				<path id="XMLID_92_" class="st7" d="M-395.6,238.6h1.6v0.4h-1.2v0.9h1.2v0.4h-1.2v0.9h1.3v0.4h-1.7V238.6z"/>
			</g>
			<g id="XMLID_88_">
				<path id="XMLID_89_" class="st7" d="M-392.4,240.3l-0.3-0.2c-0.2-0.1-0.3-0.2-0.4-0.4c-0.1-0.1-0.1-0.3-0.1-0.4
					c0-0.2,0.1-0.4,0.2-0.6c0.2-0.1,0.4-0.2,0.6-0.2c0.2,0,0.5,0.1,0.7,0.2v0.5c-0.2-0.2-0.4-0.3-0.7-0.3c-0.1,0-0.2,0-0.3,0.1
					c-0.1,0.1-0.1,0.1-0.1,0.2c0,0.1,0,0.2,0.1,0.2c0.1,0.1,0.2,0.2,0.3,0.2l0.3,0.2c0.4,0.2,0.5,0.5,0.5,0.8c0,0.2-0.1,0.4-0.2,0.6
					c-0.2,0.1-0.4,0.2-0.6,0.2c-0.3,0-0.5-0.1-0.8-0.3v-0.5c0.2,0.3,0.5,0.4,0.8,0.4c0.1,0,0.2,0,0.3-0.1c0.1-0.1,0.1-0.2,0.1-0.3
					C-392,240.6-392.2,240.4-392.4,240.3z"/>
			</g>
			<g id="XMLID_84_">
				<path id="XMLID_85_" class="st7" d="M-389.4,238.5c0.4,0,0.8,0.1,1.1,0.4c0.3,0.3,0.4,0.6,0.4,1.1c0,0.4-0.2,0.8-0.5,1.1
					c-0.3,0.3-0.7,0.4-1.1,0.4c-0.4,0-0.8-0.1-1.1-0.4c-0.3-0.3-0.4-0.6-0.4-1.1c0-0.4,0.1-0.8,0.4-1.1
					C-390.3,238.7-389.9,238.5-389.4,238.5z M-389.4,238.9c-0.3,0-0.6,0.1-0.8,0.3c-0.2,0.2-0.3,0.5-0.3,0.8c0,0.3,0.1,0.6,0.3,0.8
					c0.2,0.2,0.5,0.3,0.8,0.3c0.3,0,0.6-0.1,0.8-0.3c0.2-0.2,0.3-0.5,0.3-0.8c0-0.3-0.1-0.6-0.3-0.8
					C-388.8,239-389.1,238.9-389.4,238.9z"/>
			</g>
			<g id="XMLID_80_">
				<path id="XMLID_81_" class="st7" d="M-387,241.5v-2.9h0.7c0.3,0,0.5,0.1,0.7,0.2c0.2,0.1,0.3,0.3,0.3,0.6c0,0.2,0,0.3-0.1,0.4
					c-0.1,0.1-0.2,0.2-0.4,0.3c0.1,0.1,0.2,0.1,0.3,0.2c0.1,0.1,0.2,0.3,0.4,0.6c0.1,0.2,0.2,0.3,0.2,0.4l0.2,0.2h-0.5l-0.1-0.2
					c0,0,0,0,0,0l-0.1-0.1l-0.1-0.2l-0.1-0.2c-0.1-0.1-0.2-0.2-0.2-0.3c-0.1-0.1-0.1-0.1-0.2-0.2c-0.1,0-0.2,0-0.3,0h-0.1v1.3H-387z
					 M-386.5,238.9h-0.1v0.9h0.2c0.2,0,0.4,0,0.4-0.1c0.1,0,0.1-0.1,0.2-0.2c0-0.1,0.1-0.2,0.1-0.2c0-0.1,0-0.2-0.1-0.2
					c0-0.1-0.1-0.1-0.2-0.2C-386.1,238.9-386.3,238.9-386.5,238.9z"/>
			</g>
			<g id="XMLID_77_">
				<path id="XMLID_78_" class="st7" d="M-384.8,238.6h2.4v0.4h-1v2.5h-0.4v-2.5h-1V238.6z"/>
			</g>
			<g id="XMLID_74_">
				<path id="XMLID_75_" class="st7" d="M-380.9,240.3l-0.3-0.2c-0.2-0.1-0.3-0.2-0.4-0.4c-0.1-0.1-0.1-0.3-0.1-0.4
					c0-0.2,0.1-0.4,0.2-0.6c0.2-0.1,0.4-0.2,0.6-0.2c0.2,0,0.5,0.1,0.7,0.2v0.5c-0.2-0.2-0.4-0.3-0.7-0.3c-0.1,0-0.2,0-0.3,0.1
					c-0.1,0.1-0.1,0.1-0.1,0.2c0,0.1,0,0.2,0.1,0.2c0.1,0.1,0.2,0.2,0.3,0.2l0.3,0.2c0.4,0.2,0.5,0.5,0.5,0.8c0,0.2-0.1,0.4-0.2,0.6
					c-0.2,0.1-0.4,0.2-0.6,0.2c-0.3,0-0.5-0.1-0.8-0.3v-0.5c0.2,0.3,0.5,0.4,0.8,0.4c0.1,0,0.2,0,0.3-0.1c0.1-0.1,0.1-0.2,0.1-0.3
					C-380.5,240.6-380.6,240.4-380.9,240.3z"/>
			</g>
		</g>
	</g>
	<g id="XMLID_3_" class="st1">
		<g id="XMLID_4_">
			<g id="XMLID_70_">
				<rect id="XMLID_71_" x="-692.6" y="243.4" class="st2" width="31.4" height="0.1"/>
			</g>
			<g id="XMLID_68_">
				<path id="XMLID_69_" class="st2" d="M-655.6,235c-0.5,0-1.8,0-1.8,0c0,0-0.1-0.2-0.2-0.3c-1.2,1-3.4,1-3.9-0.7
					c-0.2-0.9,0-1.9,1-2.3c0.7-0.3,1.5-0.1,1.9,0.5c-0.7,0-1.3,0.5-1.1,1.3c0.1,0.3,0.4,0.5,0.8,0.6c0.5,0.1,0.9-0.3,1.2-0.8
					c0.6-0.9,0.1-2.1-0.8-2.5c-0.9-0.4-2.1,0-2.6-1c-0.2-0.5-0.3-1.2,0.1-1.7c0.1,0.3,0.1,0.3,0.1,0.5c0.7,1.9,2,0.3,3.5,0.8
					C-655,230.1-656.3,233.1-655.6,235C-655.5,234.9-655.5,235-655.6,235"/>
			</g>
			<g id="XMLID_66_">
				<path id="XMLID_67_" class="st2" d="M-652.7,235h-1.6c-0.2,0-0.1-0.1-0.1-0.1c0.3-2.5,0.1-3.8-0.1-5.7c0.1,0.1,0.2,0.1,0.3,0.2
					c0.2,0.2,0.7,0.4,0.8,0.3c1.6-0.7,3.8-0.8,4.2,1c0.4,1.8-1.1,3.2-0.7,4.9c0.2,0.6,0.7,1.1,1.4,1c-0.8,0.9-2.3,0.1-2.8-0.8
					c-0.8-1.5,0.3-3.1,0.2-4.7c0-0.4-0.5-1-1-0.7C-653.6,231.1-652.8,233.4-652.7,235C-652.7,235-652.7,235-652.7,235"/>
			</g>
			<g id="XMLID_62_">
				<path id="XMLID_63_" class="st2" d="M-672.5,235c0.2-1.2,0.2-3.9,0-5.9c0-0.3,0-0.2,0.2-0.2c0.2,0,1.9,0.4,1.9,0.8
					c-0.2,1.6-0.2,3.7-0.1,5.3c0,0.3-1.3,0.2-1.8,0.1C-672.6,235.1-672.5,235-672.5,235 M-674.8,231.2c-1.7-0.6-1.8-2.7-0.9-3.7
					c1.5-1.8,4.2-0.9,5.9,0.3c0.7,0.5,1.3,0.2,1.6-0.2c0.1,1-0.8,1.6-1.5,1.6c-0.8,0-1.6-0.5-2.4-0.7c-0.7-0.2-1.4-0.2-2.1,0
					c-0.3,0.1-0.7,0.3-0.9,0.6C-675.4,230-675.1,230.7-674.8,231.2"/>
			</g>
			<g id="XMLID_60_">
				<path id="XMLID_61_" class="st2" d="M-667.7,235c0.2-4.2-0.2-3.4,0.2-5.4c0.2-0.8,0.8-1.5,0.8-2.2c0-0.4-0.2-1.2-0.5-1.6
					c0.1,0,0.5,0.1,0.6,0.2c1.8,1.3,0.4,3.1,0.7,3.8c1.2-1.2,3-0.8,3.4,0.8c0.5,1.8-0.9,3.3-0.5,5c0.2,0.9,1,1.7,2,1.4
					c-1.4,0.6-2.8-0.2-3.2-1.5c-0.5-1.3-0.2-2.7,0.2-4.1c0.1-0.5-0.1-1.1-0.6-1.1c-2.2-0.1-1.1,3.4-1.4,4.8c0,0.1-1,0.1-1.6,0.1
					C-667.8,235.2-667.7,235-667.7,235"/>
			</g>
			<g id="XMLID_56_">
				<path id="XMLID_57_" class="st2" d="M-648.1,228.8c0.2,1.9,0.2,3.9,0,5.7c0,0.2,1.3,0.1,1.9,0.1c0.1,0,0.1-0.1,0.1-0.1
					c-0.3-2-0.2-3.9-0.2-5.6c0-0.5-1.1-0.3-1.5-0.3c-0.1,0-0.2,0-0.2,0C-648,228.7-648.1,228.7-648.1,228.8 M-646.5,226.6
					c0.4,0.2,0.5,0.7,0.3,0.9c-0.4,0.4-1,0.5-1.5,0.2c-0.2-0.1-0.3-0.4-0.3-0.6C-648,226.5-647.1,226.3-646.5,226.6"/>
			</g>
			<g id="XMLID_54_">
				<path id="XMLID_55_" class="st2" d="M-707.4,226.4c0.1,0.6,0.6,1,1.1,1c1.5,0.2,3-0.6,4.5-0.2c1.4,0.3,2.5,1.4,2.8,2.9
					c0.4,2-0.1,4.1-2,5c-1.3,0.6-2.4-0.3-3.8-0.1c-0.3,0-0.6,0.3-1,0.3c0.9-1.7,0.9-3.9,0.7-5.6c0-0.4,1.3-0.3,2-0.3
					c-0.3,1.4-0.2,2.9-0.1,4.3c0,0.3,0.5,0.7,0.8,0.6c2-0.9,2.1-4.6,0-5.3c-1.6-0.6-3.4,1.1-5-0.7c-0.5-0.6-0.6-1.6-0.1-2.2
					C-707.4,226.1-707.4,226.3-707.4,226.4"/>
			</g>
			<g id="XMLID_52_">
				<path id="XMLID_53_" class="st2" d="M-696.6,227.5c1.8,1.7-0.1,4,0.2,6c0.1,0.4,0.4,0.7,0.8,0.8c0.5,0,1-0.2,1.1-0.8
					c0.3-1.5,0.2-3,0-4.4h1.7c-0.1,2-0.3,4,0,6c-0.6-0.1-0.9-0.7-1.5-0.3c-1.1,0.7-2.5,0.9-3.3-0.1c-1.5-1.9,0.2-4,0.8-6
					c0.1-0.5,0.1-1.1-0.1-1.6C-696.8,227.3-696.7,227.4-696.6,227.5"/>
			</g>
			<g id="XMLID_50_">
				<path id="XMLID_51_" class="st2" d="M-686.7,229.2c0,0.5-0.3,0.9-0.7,1c-0.5,0.2-1.1-0.1-1.7,0c-0.4,0.1-0.8,0.5-0.6,0.9
					c0.5,0.8,1.9,0.3,2.8,0.9c1.1,0.8,0.8,2.3-0.2,3c-1.2,0.9-2.5-0.2-3.8-0.4c-0.3,0-0.7,0.2-0.9,0.6c0.4-1.5,1.9-1.4,3.1-1.5
					c0.4,0,0.5-0.2,0.5-0.4c0.1-0.4-0.1-0.8-0.5-0.9c-0.8-0.3-1.9,0-2.6-0.6c-0.4-0.3-0.6-0.9-0.4-1.4c0.6-1.8,2.3-1.7,4-1.2
					c0.4,0.1,0.9-0.3,1-0.7C-686.8,228.7-686.7,229.1-686.7,229.2"/>
			</g>
			<g id="XMLID_46_">
				<path id="XMLID_47_" class="st2" d="M-685.3,229.2c0.2,1.9,0.2,3.9,0,5.7c0,0.2,1.3,0.1,1.9,0.1c0.1,0,0.1-0.1,0.1-0.1
					c-0.3-2-0.2-3.9-0.2-5.6c0-0.5-1.1-0.3-1.5-0.3c-0.1,0-0.2,0-0.2,0C-685.2,229-685.4,229-685.3,229.2 M-683.8,226.9
					c0.4,0.2,0.5,0.7,0.3,0.9c-0.4,0.4-1,0.5-1.5,0.2c-0.2-0.1-0.3-0.4-0.3-0.6C-685.2,226.8-684.4,226.6-683.8,226.9"/>
			</g>
			<g id="XMLID_44_">
				<path id="XMLID_45_" class="st2" d="M-680.2,227.5c0,0.6,0.2,1.1,0.6,1.4c0.2,0.2,0.6,0.2,1,0.2c-0.2,0.1-0.7,0.2-0.9,0.3
					c-0.3,0.2-0.4,0.4-0.4,0.5c-0.1,1.2-0.3,2.8,0,3.8c0.2,0.6,0.7,0.8,1.3,0.4c0.6-0.5,0.8-0.7,1.3-0.7c-0.3,0.2-0.7,0.6-0.9,1.1
					c-0.3,0.8-1.1,1.1-2.1,0.9c-2.4-0.5-1.4-4.3-1.7-5.9c-0.1-0.3-0.2-0.4-0.4-0.5c1.6-0.2,2-1.2,2.2-2.3
					C-680.2,226.9-680.2,227.5-680.2,227.5"/>
			</g>
			<g id="XMLID_42_">
				<path id="XMLID_43_" class="st2" d="M-694.7,240v0.9c0,0.1,0,0.2,0.1,0.2v0.1c-0.1,0-0.2,0-0.3,0c-0.1,0-0.2,0-0.3,0v-0.1
					c0.1,0,0.1-0.1,0.1-0.2v-1.3c0-0.8,0-0.8-0.2-0.8v-0.1c0.1,0,0.2,0,0.3,0c0.1,0,0.2,0,0.3,0v0.1c-0.1,0-0.2,0.1-0.2,0.2l0,0.8
					h1.7l0-0.8c0-0.1,0-0.2-0.2-0.2v-0.1c0.1,0,0.2,0,0.3,0c0.1,0,0.2,0,0.3,0v0.1c-0.2,0-0.2,0-0.2,0.8v1.3c0,0.1,0.1,0.2,0.1,0.2
					v0.1c-0.1,0-0.2,0-0.3,0c-0.1,0-0.2,0-0.3,0v-0.1c0.1,0,0.1-0.1,0.1-0.2V240H-694.7"/>
			</g>
			<g id="XMLID_38_">
				<path id="XMLID_39_" class="st2" d="M-690.6,241.1c0.7,0,1-0.5,1-1.2c0-0.6-0.3-1.2-1-1.2c-0.7,0-1,0.5-1,1.2
					C-691.6,240.6-691.3,241.1-690.6,241.1 M-690.6,238.7c0.8,0,1.3,0.6,1.3,1.3c0,0.7-0.6,1.3-1.3,1.3c-0.8,0-1.3-0.6-1.3-1.3
					C-692,239.3-691.4,238.7-690.6,238.7"/>
			</g>
			<g id="XMLID_36_">
				<path id="XMLID_37_" class="st2" d="M-688.4,238.9c-0.2,0-0.3,0.1-0.4,0.2h-0.1l0-0.4h0c0.1,0,0.1,0,0.2,0c0.3,0,0.6,0,0.9,0
					c0.3,0,0.6,0,0.9,0c0.1,0,0.2,0,0.2,0h0l0,0.4h-0.1c-0.1-0.2-0.1-0.2-0.4-0.2h-0.5l0,2c0,0.1,0.1,0.2,0.2,0.2v0.1
					c-0.1,0-0.3,0-0.4,0c-0.1,0-0.3,0-0.4,0v-0.1c0.2,0,0.3-0.1,0.3-0.2l0-2H-688.4"/>
			</g>
			<g id="XMLID_34_">
				<path id="XMLID_35_" class="st2" d="M-684.5,239.1L-684.5,239.1c-0.1-0.2-0.2-0.3-0.6-0.3h-0.6c0,0.2,0,0.4,0,0.7v0.4h0.7
					c0.2,0,0.3,0,0.3-0.2h0.1c0,0.1,0,0.2,0,0.2c0,0.1,0,0.2,0,0.2h-0.1c0-0.1-0.1-0.2-0.3-0.2h-0.7v1.1h0.8c0.2,0,0.3-0.1,0.4-0.2
					l0.1,0l-0.1,0.4c-0.1,0-0.3,0-0.5,0h-1.2v0c0.2,0,0.2-0.1,0.2-0.2v-1c0-1.1,0-1.1-0.2-1.1v-0.1h1.5c0.1,0,0.1,0,0.1-0.1h0.1
					V239.1"/>
			</g>
			<g id="XMLID_32_">
				<path id="XMLID_33_" class="st2" d="M-683.7,240.1c0-1.2,0-1.2-0.2-1.2v-0.1c0.1,0,0.2,0,0.4,0c0.1,0,0.2,0,0.3,0v0.1
					c-0.1,0-0.2,0.1-0.2,0.2c0,0.2,0,0.7,0,1c0,0.3,0,0.7,0,1h0.7c0.3,0,0.4-0.1,0.5-0.3l0.1,0l-0.1,0.4c-0.1,0-0.6,0-0.8,0
					c-0.3,0-0.6,0-0.8,0v-0.1c0.1,0,0.2-0.1,0.2-0.2V240.1"/>
			</g>
			<g id="XMLID_30_">
				<path id="XMLID_31_" class="st2" d="M-680.3,239.1c-0.1-0.2-0.3-0.3-0.6-0.3c-0.3,0-0.6,0.1-0.6,0.5c0,0.8,1.3,0.4,1.3,1.3
					c0,0.5-0.3,0.7-0.8,0.7c-0.2,0-0.5,0-0.7-0.1l0-0.4h0.1c0.1,0.3,0.4,0.4,0.6,0.4c0.3,0,0.6-0.1,0.6-0.4c0-0.8-1.3-0.4-1.3-1.3
					c0-0.5,0.4-0.7,0.9-0.7c0.2,0,0.4,0.1,0.6,0L-680.3,239.1L-680.3,239.1"/>
			</g>
			<g id="XMLID_25_">
				<path id="XMLID_26_" class="st2" d="M-677.7,239.8c0-0.1-0.1-0.2-0.2-0.2c-0.2,0-0.2,0.1-0.2,0.2c0,0.2,0.1,0.3,0.2,0.4
					C-677.8,240.1-677.7,240-677.7,239.8 M-678.1,240.3c-0.1,0.1-0.3,0.2-0.3,0.4c0,0.3,0.3,0.4,0.5,0.4c0.2,0,0.3-0.1,0.4-0.2
					L-678.1,240.3z M-677.4,240.9c-0.1,0.2-0.3,0.3-0.6,0.3c-0.3,0-0.6-0.2-0.6-0.5c0-0.2,0.2-0.4,0.4-0.5c-0.1-0.1-0.2-0.2-0.2-0.4
					c0-0.2,0.2-0.4,0.4-0.4c0.2,0,0.4,0.1,0.4,0.3c0,0.1-0.2,0.3-0.3,0.4l0.6,0.5c0.1-0.1,0.1-0.3,0.1-0.4c0-0.1,0-0.1-0.2-0.2v-0.1
					c0.1,0,0.2,0,0.3,0c0.1,0,0.2,0,0.3,0v0.1c-0.1,0-0.2,0-0.2,0.1c0,0-0.2,0.4-0.3,0.5c0.1,0.1,0.3,0.3,0.5,0.4c0,0,0.1,0,0.1,0
					v0.1c-0.1,0-0.2,0-0.2,0c-0.1,0-0.2,0-0.2,0L-677.4,240.9"/>
			</g>
			<g id="XMLID_21_">
				<path id="XMLID_22_" class="st2" d="M-674.6,240c0,0,0.1,0,0.2,0c0.4,0,0.7-0.2,0.7-0.6c0-0.3-0.2-0.6-0.7-0.6
					c-0.1,0-0.2,0-0.2,0.1c0,0.2,0,0.4,0,0.5V240z M-674.9,240c0-0.3,0-0.6,0-0.9c0-0.2,0-0.3-0.2-0.3v-0.1c0.2,0,0.5,0,0.7,0
					c0.5,0,1,0.2,1,0.7c0,0.3-0.3,0.6-0.6,0.6l0.8,0.9c0.1,0.1,0.1,0.1,0.2,0.1v0.1c-0.1,0-0.2,0-0.3,0c-0.1,0-0.2,0-0.3,0v-0.1
					c0,0,0,0,0,0c0,0,0,0,0-0.1l-0.6-0.7c-0.1-0.1-0.2-0.2-0.4-0.2v0.8c0,0.1,0,0.2,0.2,0.2v0.1c-0.1,0-0.2,0-0.3,0
					c-0.1,0-0.2,0-0.3,0v-0.1c0.1,0,0.2-0.1,0.2-0.2V240"/>
			</g>
			<g id="XMLID_19_">
				<path id="XMLID_20_" class="st2" d="M-671.1,239.1L-671.1,239.1c-0.1-0.2-0.2-0.3-0.6-0.3h-0.6c0,0.2,0,0.4,0,0.7v0.4h0.7
					c0.2,0,0.3,0,0.3-0.2h0.1c0,0.1,0,0.2,0,0.2c0,0.1,0,0.2,0,0.2h-0.1c0-0.1-0.1-0.2-0.3-0.2h-0.7v1.1h0.8c0.2,0,0.3-0.1,0.4-0.2
					l0.1,0l-0.1,0.4c-0.1,0-0.3,0-0.5,0h-1.2v0c0.2,0,0.2-0.1,0.2-0.2v-1c0-1.1,0-1.1-0.2-1.1v-0.1h1.5c0.1,0,0.1,0,0.1-0.1h0.1
					V239.1"/>
			</g>
			<g id="XMLID_17_">
				<path id="XMLID_18_" class="st2" d="M-669.1,239.1c-0.1-0.2-0.3-0.3-0.6-0.3c-0.3,0-0.6,0.1-0.6,0.5c0,0.8,1.3,0.4,1.3,1.3
					c0,0.5-0.3,0.7-0.8,0.7c-0.2,0-0.5,0-0.7-0.1l0-0.4h0.1c0.1,0.3,0.4,0.4,0.6,0.4c0.3,0,0.6-0.1,0.6-0.4c0-0.8-1.3-0.4-1.3-1.3
					c0-0.5,0.4-0.7,0.9-0.7c0.2,0,0.4,0.1,0.6,0L-669.1,239.1L-669.1,239.1"/>
			</g>
			<g id="XMLID_13_">
				<path id="XMLID_14_" class="st2" d="M-667.1,241.1c0.7,0,1-0.5,1-1.2c0-0.6-0.3-1.2-1-1.2c-0.7,0-1,0.5-1,1.2
					C-668,240.6-667.8,241.1-667.1,241.1 M-667.1,238.7c0.8,0,1.3,0.6,1.3,1.3c0,0.7-0.6,1.3-1.3,1.3c-0.8,0-1.3-0.6-1.3-1.3
					C-668.4,239.3-667.8,238.7-667.1,238.7"/>
			</g>
			<g id="XMLID_9_">
				<path id="XMLID_10_" class="st2" d="M-664.7,240c0,0,0.1,0,0.2,0c0.4,0,0.7-0.2,0.7-0.6c0-0.3-0.2-0.6-0.7-0.6
					c-0.1,0-0.2,0-0.2,0.1c0,0.2,0,0.4,0,0.5V240z M-665,240c0-0.3,0-0.6,0-0.9c0-0.2,0-0.3-0.2-0.3v-0.1c0.2,0,0.5,0,0.7,0
					c0.5,0,1,0.2,1,0.7c0,0.3-0.3,0.6-0.6,0.6l0.8,0.9c0.1,0.1,0.1,0.1,0.2,0.1v0.1c-0.1,0-0.2,0-0.3,0c-0.1,0-0.2,0-0.3,0v-0.1
					c0,0,0,0,0,0c0,0,0,0,0-0.1l-0.6-0.7c-0.1-0.1-0.2-0.2-0.4-0.2v0.8c0,0.1,0,0.2,0.2,0.2v0.1c-0.1,0-0.2,0-0.3,0
					c-0.1,0-0.2,0-0.3,0v-0.1c0.1,0,0.2-0.1,0.2-0.2V240"/>
			</g>
			<g id="XMLID_7_">
				<path id="XMLID_8_" class="st2" d="M-662.6,238.9c-0.2,0-0.3,0.1-0.4,0.2h-0.1l0-0.4h0c0.1,0,0.1,0,0.2,0c0.3,0,0.6,0,0.9,0
					c0.3,0,0.6,0,0.9,0c0.1,0,0.2,0,0.2,0h0l0,0.4h-0.1c-0.1-0.2-0.1-0.2-0.4-0.2h-0.5l0,2c0,0.1,0.1,0.2,0.2,0.2v0.1
					c-0.1,0-0.3,0-0.4,0c-0.1,0-0.3,0-0.4,0v-0.1c0.2,0,0.3-0.1,0.3-0.2l0-2H-662.6"/>
			</g>
			<g id="XMLID_5_">
				<path id="XMLID_6_" class="st2" d="M-658.9,239.1c-0.1-0.2-0.3-0.3-0.6-0.3c-0.3,0-0.6,0.1-0.6,0.5c0,0.8,1.3,0.4,1.3,1.3
					c0,0.5-0.3,0.7-0.8,0.7c-0.2,0-0.5,0-0.7-0.1l0-0.4h0.1c0.1,0.3,0.4,0.4,0.6,0.4c0.3,0,0.6-0.1,0.6-0.4c0-0.8-1.3-0.4-1.3-1.3
					c0-0.5,0.4-0.7,0.9-0.7c0.2,0,0.4,0.1,0.6,0L-658.9,239.1L-658.9,239.1"/>
			</g>
		</g>
	</g>
	
		<text id="XMLID_334_" transform="matrix(1 0 0 1 -530.2162 168.9736)" style="display:inline;fill:#232C65; font-family:'HelveticaNeueLTStd-Cn'; font-size:82.858px; letter-spacing:6;">REIT</text>
	<g id="XMLID_441_" class="st1">
		<defs>
			<rect id="XMLID_440_" x="-614.6" y="341.1" width="208.8" height="208.8"/>
		</defs>
		<clipPath id="XMLID_00000067936247620838654280000011237327497121365686_">
			<use xlink:href="#XMLID_440_"  style="overflow:visible;"/>
		</clipPath>
		<g id="XMLID_439_" style="clip-path:url(#XMLID_00000067936247620838654280000011237327497121365686_);">
			
				<linearGradient id="XMLID_00000165920252639631128400000017427336562406159244_" gradientUnits="userSpaceOnUse" x1="-595.0419" y1="581.7142" x2="-595.0419" y2="502.7788">
				<stop  offset="0" style="stop-color:#232C65"/>
				<stop  offset="9.350093e-02" style="stop-color:#263067;stop-opacity:0.9093"/>
				<stop  offset="0.2217" style="stop-color:#33396D;stop-opacity:0.785"/>
				<stop  offset="0.3701" style="stop-color:#474A79;stop-opacity:0.6412"/>
				<stop  offset="0.5335" style="stop-color:#64628B;stop-opacity:0.4828"/>
				<stop  offset="0.7093" style="stop-color:#8A86A7;stop-opacity:0.3123"/>
				<stop  offset="0.8927" style="stop-color:#C3C0D1;stop-opacity:0.1345"/>
				<stop  offset="1" style="stop-color:#F1F0F4;stop-opacity:3.046590e-02"/>
				<stop  offset="1" style="stop-color:#FFFFFF;stop-opacity:0"/>
			</linearGradient>
			
				<rect id="XMLID_430_" x="-614.6" y="502.8" style="fill:url(#XMLID_00000165920252639631128400000017427336562406159244_);" width="39" height="78.9"/>
			
				<linearGradient id="XMLID_00000016765888219921082210000001129830280805626018_" gradientUnits="userSpaceOnUse" x1="-527.5234" y1="589.4134" x2="-527.5234" y2="510.478">
				<stop  offset="0" style="stop-color:#686B73"/>
				<stop  offset="0.1464" style="stop-color:#6C6D76;stop-opacity:0.858"/>
				<stop  offset="0.314" style="stop-color:#76767E;stop-opacity:0.6956"/>
				<stop  offset="0.492" style="stop-color:#88878E;stop-opacity:0.523"/>
				<stop  offset="0.6773" style="stop-color:#A3A1A8;stop-opacity:0.3434"/>
				<stop  offset="0.8663" style="stop-color:#CAC8CD;stop-opacity:0.1601"/>
				<stop  offset="1" style="stop-color:#F1F0F4;stop-opacity:3.046590e-02"/>
				<stop  offset="1" style="stop-color:#FFFFFF;stop-opacity:0"/>
			</linearGradient>
			
				<rect id="XMLID_429_" x="-543.5" y="510.5" style="fill:url(#XMLID_00000016765888219921082210000001129830280805626018_);" width="32" height="78.9"/>
			
				<linearGradient id="XMLID_00000065055777640386551490000015770821829921535672_" gradientUnits="userSpaceOnUse" x1="-559.5219" y1="520.6401" x2="-559.5219" y2="599.5754">
				<stop  offset="0" style="stop-color:#9EA4C6"/>
				<stop  offset="0.2705" style="stop-color:#A0A7C7;stop-opacity:0.7377"/>
				<stop  offset="0.4663" style="stop-color:#A8ADCB;stop-opacity:0.5479"/>
				<stop  offset="0.6386" style="stop-color:#B5B9D2;stop-opacity:0.3808"/>
				<stop  offset="0.7973" style="stop-color:#C9CBDD;stop-opacity:0.227"/>
				<stop  offset="0.9454" style="stop-color:#E4E4EC;stop-opacity:8.343023e-02"/>
				<stop  offset="1" style="stop-color:#F1F0F4;stop-opacity:3.046590e-02"/>
				<stop  offset="1" style="stop-color:#FFFFFF;stop-opacity:0"/>
			</linearGradient>
			
				<rect id="XMLID_428_" x="-575.5" y="520.6" style="fill:url(#XMLID_00000065055777640386551490000015770821829921535672_);" width="32" height="78.9"/>
			
				<linearGradient id="XMLID_00000013897668342899178680000005453542989287107258_" gradientUnits="userSpaceOnUse" x1="-491.989" y1="578.9839" x2="-491.989" y2="500.0485">
				<stop  offset="0" style="stop-color:#232C65"/>
				<stop  offset="9.350093e-02" style="stop-color:#263067;stop-opacity:0.9093"/>
				<stop  offset="0.2217" style="stop-color:#33396D;stop-opacity:0.785"/>
				<stop  offset="0.3701" style="stop-color:#474A79;stop-opacity:0.6412"/>
				<stop  offset="0.5335" style="stop-color:#64628B;stop-opacity:0.4828"/>
				<stop  offset="0.7093" style="stop-color:#8A86A7;stop-opacity:0.3123"/>
				<stop  offset="0.8927" style="stop-color:#C3C0D1;stop-opacity:0.1345"/>
				<stop  offset="1" style="stop-color:#F1F0F4;stop-opacity:3.046590e-02"/>
				<stop  offset="1" style="stop-color:#FFFFFF;stop-opacity:0"/>
			</linearGradient>
			
				<rect id="XMLID_427_" x="-511.5" y="500" style="fill:url(#XMLID_00000013897668342899178680000005453542989287107258_);" width="39" height="78.9"/>
			
				<linearGradient id="XMLID_00000106833263197655410580000005194727961856876969_" gradientUnits="userSpaceOnUse" x1="-424.4705" y1="575.7828" x2="-424.4705" y2="496.8474">
				<stop  offset="0" style="stop-color:#686B73"/>
				<stop  offset="0.1464" style="stop-color:#6C6D76;stop-opacity:0.858"/>
				<stop  offset="0.314" style="stop-color:#76767E;stop-opacity:0.6956"/>
				<stop  offset="0.492" style="stop-color:#88878E;stop-opacity:0.523"/>
				<stop  offset="0.6773" style="stop-color:#A3A1A8;stop-opacity:0.3434"/>
				<stop  offset="0.8663" style="stop-color:#CAC8CD;stop-opacity:0.1601"/>
				<stop  offset="1" style="stop-color:#F1F0F4;stop-opacity:3.046590e-02"/>
				<stop  offset="1" style="stop-color:#FFFFFF;stop-opacity:0"/>
			</linearGradient>
			
				<rect id="XMLID_426_" x="-440.5" y="496.8" style="fill:url(#XMLID_00000106833263197655410580000005194727961856876969_);" width="32" height="78.9"/>
			
				<linearGradient id="XMLID_00000175288430289922889170000012303612348466716300_" gradientUnits="userSpaceOnUse" x1="-456.4689" y1="516.2867" x2="-456.4689" y2="595.222">
				<stop  offset="0" style="stop-color:#9EA4C6"/>
				<stop  offset="0.2705" style="stop-color:#A0A7C7;stop-opacity:0.7377"/>
				<stop  offset="0.4663" style="stop-color:#A8ADCB;stop-opacity:0.5479"/>
				<stop  offset="0.6386" style="stop-color:#B5B9D2;stop-opacity:0.3808"/>
				<stop  offset="0.7973" style="stop-color:#C9CBDD;stop-opacity:0.227"/>
				<stop  offset="0.9454" style="stop-color:#E4E4EC;stop-opacity:8.343023e-02"/>
				<stop  offset="1" style="stop-color:#F1F0F4;stop-opacity:3.046590e-02"/>
				<stop  offset="1" style="stop-color:#FFFFFF;stop-opacity:0"/>
			</linearGradient>
			
				<rect id="XMLID_425_" x="-472.5" y="516.3" style="fill:url(#XMLID_00000175288430289922889170000012303612348466716300_);" width="32" height="78.9"/>
			<g id="XMLID_356_">
				
					<linearGradient id="XMLID_00000137121594060348587230000007908524481228901274_" gradientUnits="userSpaceOnUse" x1="-595.0419" y1="719.2315" x2="-595.0419" y2="640.2961" gradientTransform="matrix(1 0 0 -1 -6.495480e-06 1038.755)">
					<stop  offset="0" style="stop-color:#232C65"/>
					<stop  offset="9.350093e-02" style="stop-color:#263067;stop-opacity:0.9093"/>
					<stop  offset="0.2217" style="stop-color:#33396D;stop-opacity:0.785"/>
					<stop  offset="0.3701" style="stop-color:#474A79;stop-opacity:0.6412"/>
					<stop  offset="0.5335" style="stop-color:#64628B;stop-opacity:0.4828"/>
					<stop  offset="0.7093" style="stop-color:#8A86A7;stop-opacity:0.3123"/>
					<stop  offset="0.8927" style="stop-color:#C3C0D1;stop-opacity:0.1345"/>
					<stop  offset="1" style="stop-color:#F1F0F4;stop-opacity:3.046590e-02"/>
					<stop  offset="1" style="stop-color:#FFFFFF;stop-opacity:0"/>
				</linearGradient>
				
					<rect id="XMLID_437_" x="-614.6" y="319.5" style="fill:url(#XMLID_00000137121594060348587230000007908524481228901274_);" width="39" height="78.9"/>
				
					<linearGradient id="XMLID_00000013170594524967623070000009506489582823016837_" gradientUnits="userSpaceOnUse" x1="-527.5234" y1="726.9307" x2="-527.5234" y2="647.9953" gradientTransform="matrix(1 0 0 -1 -6.495480e-06 1038.755)">
					<stop  offset="0" style="stop-color:#686B73"/>
					<stop  offset="0.1464" style="stop-color:#6C6D76;stop-opacity:0.858"/>
					<stop  offset="0.314" style="stop-color:#76767E;stop-opacity:0.6956"/>
					<stop  offset="0.492" style="stop-color:#88878E;stop-opacity:0.523"/>
					<stop  offset="0.6773" style="stop-color:#A3A1A8;stop-opacity:0.3434"/>
					<stop  offset="0.8663" style="stop-color:#CAC8CD;stop-opacity:0.1601"/>
					<stop  offset="1" style="stop-color:#F1F0F4;stop-opacity:3.046590e-02"/>
					<stop  offset="1" style="stop-color:#FFFFFF;stop-opacity:0"/>
				</linearGradient>
				
					<rect id="XMLID_436_" x="-543.5" y="311.8" style="fill:url(#XMLID_00000013170594524967623070000009506489582823016837_);" width="32" height="78.9"/>
				
					<linearGradient id="XMLID_00000155114935554517642180000009862814133463104954_" gradientUnits="userSpaceOnUse" x1="-559.5219" y1="658.1573" x2="-559.5219" y2="737.0927" gradientTransform="matrix(1 0 0 -1 -6.495480e-06 1038.755)">
					<stop  offset="0" style="stop-color:#9EA4C6"/>
					<stop  offset="0.2705" style="stop-color:#A0A7C7;stop-opacity:0.7377"/>
					<stop  offset="0.4663" style="stop-color:#A8ADCB;stop-opacity:0.5479"/>
					<stop  offset="0.6386" style="stop-color:#B5B9D2;stop-opacity:0.3808"/>
					<stop  offset="0.7973" style="stop-color:#C9CBDD;stop-opacity:0.227"/>
					<stop  offset="0.9454" style="stop-color:#E4E4EC;stop-opacity:8.343023e-02"/>
					<stop  offset="1" style="stop-color:#F1F0F4;stop-opacity:3.046590e-02"/>
					<stop  offset="1" style="stop-color:#FFFFFF;stop-opacity:0"/>
				</linearGradient>
				
					<rect id="XMLID_435_" x="-575.5" y="301.7" style="fill:url(#XMLID_00000155114935554517642180000009862814133463104954_);" width="32" height="78.9"/>
				
					<linearGradient id="XMLID_00000092423048491340953320000009731824521268145554_" gradientUnits="userSpaceOnUse" x1="-491.989" y1="716.5012" x2="-491.989" y2="637.5658" gradientTransform="matrix(1 0 0 -1 -6.495480e-06 1038.755)">
					<stop  offset="0" style="stop-color:#232C65"/>
					<stop  offset="9.350093e-02" style="stop-color:#263067;stop-opacity:0.9093"/>
					<stop  offset="0.2217" style="stop-color:#33396D;stop-opacity:0.785"/>
					<stop  offset="0.3701" style="stop-color:#474A79;stop-opacity:0.6412"/>
					<stop  offset="0.5335" style="stop-color:#64628B;stop-opacity:0.4828"/>
					<stop  offset="0.7093" style="stop-color:#8A86A7;stop-opacity:0.3123"/>
					<stop  offset="0.8927" style="stop-color:#C3C0D1;stop-opacity:0.1345"/>
					<stop  offset="1" style="stop-color:#F1F0F4;stop-opacity:3.046590e-02"/>
					<stop  offset="1" style="stop-color:#FFFFFF;stop-opacity:0"/>
				</linearGradient>
				
					<rect id="XMLID_434_" x="-511.5" y="322.3" style="fill:url(#XMLID_00000092423048491340953320000009731824521268145554_);" width="39" height="78.9"/>
				
					<linearGradient id="XMLID_00000136399833190207205180000004117089950795122096_" gradientUnits="userSpaceOnUse" x1="-424.4705" y1="713.3001" x2="-424.4705" y2="634.3647" gradientTransform="matrix(1 0 0 -1 -6.495480e-06 1038.755)">
					<stop  offset="0" style="stop-color:#686B73"/>
					<stop  offset="0.1464" style="stop-color:#6C6D76;stop-opacity:0.858"/>
					<stop  offset="0.314" style="stop-color:#76767E;stop-opacity:0.6956"/>
					<stop  offset="0.492" style="stop-color:#88878E;stop-opacity:0.523"/>
					<stop  offset="0.6773" style="stop-color:#A3A1A8;stop-opacity:0.3434"/>
					<stop  offset="0.8663" style="stop-color:#CAC8CD;stop-opacity:0.1601"/>
					<stop  offset="1" style="stop-color:#F1F0F4;stop-opacity:3.046590e-02"/>
					<stop  offset="1" style="stop-color:#FFFFFF;stop-opacity:0"/>
				</linearGradient>
				
					<rect id="XMLID_431_" x="-440.5" y="325.5" style="fill:url(#XMLID_00000136399833190207205180000004117089950795122096_);" width="32" height="78.9"/>
				
					<linearGradient id="XMLID_00000021085202249080569030000013973643750224173201_" gradientUnits="userSpaceOnUse" x1="-456.4689" y1="653.804" x2="-456.4689" y2="732.7394" gradientTransform="matrix(1 0 0 -1 -6.495480e-06 1038.755)">
					<stop  offset="0" style="stop-color:#9EA4C6"/>
					<stop  offset="0.2705" style="stop-color:#A0A7C7;stop-opacity:0.7377"/>
					<stop  offset="0.4663" style="stop-color:#A8ADCB;stop-opacity:0.5479"/>
					<stop  offset="0.6386" style="stop-color:#B5B9D2;stop-opacity:0.3808"/>
					<stop  offset="0.7973" style="stop-color:#C9CBDD;stop-opacity:0.227"/>
					<stop  offset="0.9454" style="stop-color:#E4E4EC;stop-opacity:8.343023e-02"/>
					<stop  offset="1" style="stop-color:#F1F0F4;stop-opacity:3.046590e-02"/>
					<stop  offset="1" style="stop-color:#FFFFFF;stop-opacity:0"/>
				</linearGradient>
				
					<rect id="XMLID_358_" x="-472.5" y="306" style="fill:url(#XMLID_00000021085202249080569030000013973643750224173201_);" width="32" height="78.9"/>
			</g>
			<g id="XMLID_423_">
				<path id="XMLID_424_" class="st2" d="M-602.1,412c1,5.8,5.5,8.7,10.1,9.4c13.7,2.1,27.2-5.1,40.7-2.3c12.8,2.6,22.6,12.4,25,26
					c3.2,17.8-1,37.2-18.4,45.7c-11.5,5.6-22-2.7-34.4-0.9c-2.9,0.4-5.4,2.7-8.7,2.6c8.1-15.5,7.9-35.2,6.6-50.5
					c-0.3-3.3,11.5-2.7,17.9-2.7c-2.9,12.9-2.2,25.9-0.7,38.7c0.3,2.9,4.8,6.5,7.6,5.2c17.9-8.5,18.9-41.7-0.1-48.3
					c-14.5-5.1-30.8,9.8-45.1-6c-4.6-5.1-5.9-14.5-0.6-20.3C-602.3,409.6-602.2,411-602.1,412"/>
			</g>
			<g id="XMLID_359_">
				<path id="XMLID_420_" class="st21" d="M-513.8,436.5h13.1c6.4,0,10.4,3.7,10.4,10.2c0,4.4-1.5,9.1-6.2,10.2v0.1
					c3.5,0.4,5.5,3.3,5.7,6.8l0.3,6.9c0.2,4.5,1,5.6,2.2,6.4h-6c-0.9-0.9-1.2-3.9-1.4-5.8l-0.3-6.3c-0.4-5.6-3.5-5.9-6-5.9h-6.8V477
					h-5V436.5z M-508.8,454.8h4.9c3,0,8.3,0,8.3-7.8c0-4-2.7-6.5-7.3-6.5h-6V454.8z"/>
				<path id="XMLID_418_" class="st21" d="M-480.1,436.5h20.9v4.4h-15.9v12.7h15v4.4h-15v14.5h16.6v4.4h-21.6V436.5z"/>
				<path id="XMLID_416_" class="st21" d="M-449.5,436.5h5V477h-5V436.5z"/>
				<path id="XMLID_414_" class="st21" d="M-421.4,477h-5v-36.1h-10.2v-4.4h25.4v4.4h-10.2V477z"/>
			</g>
		</g>
	</g>
</g>
<g>
	<g>
		<g id="XMLID_00000163056612839974737130000010449906391217939381_">
			<path id="XMLID_00000110445296350883574870000011886529920554922423_" class="st22" d="M108.9,36h18c8.7,0,14.3,5.2,14.3,14
				c0,6.1-2.1,12.5-8.6,14v0.2c4.8,0.5,7.6,4.5,7.9,9.3L141,83c0.3,6.2,1.3,7.7,3,8.7h-8.3c-1.2-1.2-1.7-5.3-1.9-8l-0.5-8.7
				c-0.5-7.6-4.8-8.1-8.3-8.1h-9.3v24.8h-6.9V36z M115.8,61.3h6.8c4.1,0,11.5,0,11.5-10.8c0-5.5-3.7-8.9-10.1-8.9h-8.2V61.3z"/>
			<path id="XMLID_00000059290512867921364360000017264237558757649556_" class="st22" d="M155.3,36h28.8v6.1h-21.9v17.5h20.7v6.1
				h-20.7v20H185v6.1h-29.7V36z"/>
			<path id="XMLID_00000021817033760224866890000006997074293344666510_" class="st22" d="M197.2,36h6.9v55.7h-6.9V36z"/>
			<path id="XMLID_00000000204652339659469310000010893036130553901221_" class="st22" d="M236,91.7h-6.9V42.1h-14V36H250v6.1h-14
				V91.7z"/>
		</g>
		<path class="st22" d="M54.5,41.6c0,0,0-2.2,2.2-2.5l8-1.3c0,0,14.2-3.2,18.3,3.9c1.3,2.3,1.7,5.9,0.6,8.3
			c-5.6,12-21.4,15.7-25.2,22c0,0-3.8,6.3-3.8-2.3C54.5,39.4,54.5,41.6,54.5,41.6 M74,22.5C60.1,16,47.7,19.8,21.2,15
			C8.1,12.6,5.9,2.5,5.3,0.7c0,0-0.5-1.8-2.9,0.5c-2.3,2.3-11.3,35,29.4,37.6l0,55.8c0,0,0,8.5,6.2,2.6c7.4-7,7.4-7,10.6-9.6
			c0,0,3.2-2.6,2.9-0.1c-0.4,2.5,0.4,4.9,1.5,7.9c2.9,7.6,12.3,11.8,22.5,6c15.9-9,25.1-40.9,15.8-61.1C85.5,27.8,76.7,23.8,74,22.5
			"/>
	</g>
</g>
</svg>
