<svg width="21" height="21" viewBox="0 0 21 21" fill="none" xmlns="http://www.w3.org/2000/svg">
<path d="M18.9062 13.9297C19.6875 14.2812 20.1172 15.1406 19.9219 15.9609L19.1016 19.6328C18.9062 20.4531 18.2031 21 17.3438 21C7.77344 21 0 13.2266 0 3.65625C0 2.79688 0.546875 2.09375 1.36719 1.9375L5.03906 1.07812C5.85938 0.882812 6.71875 1.3125 7.07031 2.09375L8.75 6.07812C9.0625 6.78125 8.86719 7.64062 8.28125 8.10938L6.67969 9.4375C7.8125 11.4688 9.53125 13.1875 11.5625 14.3203L12.8906 12.7578C13.3594 12.1328 14.2188 11.9375 14.9219 12.2109L18.9062 13.9297ZM17.8516 19.3594L18.7109 15.6875C18.7891 15.4141 18.6328 15.1797 18.3984 15.0625L14.4531 13.3828C14.2578 13.3047 13.9844 13.3438 13.8281 13.5391L12.2266 15.4922C12.0312 15.7266 11.7188 15.8047 11.4844 15.6484C8.82812 14.3594 6.64062 12.1719 5.35156 9.55469C5.19531 9.28125 5.27344 8.96875 5.50781 8.77344L7.46094 7.17188C7.65625 7.01562 7.69531 6.78125 7.61719 6.54688L5.89844 2.60156C5.82031 2.40625 5.625 2.25 5.42969 2.25C5.39062 2.25 5.35156 2.28906 5.3125 2.28906L1.64062 3.14844C1.40625 3.1875 1.25 3.38281 1.25 3.65625C1.25 12.5234 8.47656 19.75 17.3438 19.75C17.6172 19.75 17.8125 19.5938 17.8516 19.3594Z" fill="#00226D"/>
</svg>
