<svg width="54" height="43" viewBox="0 0 54 43" fill="none" xmlns="http://www.w3.org/2000/svg">
<path d="M51.75 0.5C52.9688 0.5 54 1.53125 54 2.75V40.25C54 41.5625 52.9688 42.5 51.75 42.5C50.4375 42.5 49.5 41.5625 49.5 40.25V39.9688L32.0625 35.0938C31.5 39.3125 27.9375 42.5 23.625 42.5C18.8438 42.5 15 38.6562 15 33.875C15 32.75 15.1875 31.5312 15.6562 30.5L4.3125 27.3125C4.125 28.25 3.28125 29 2.25 29C0.9375 29 0 28.0625 0 26.75V16.25C0 15.0312 0.9375 14 2.25 14C3.28125 14 4.125 14.8438 4.3125 15.7812L49.5 3.125V2.75C49.5 1.53125 50.4375 0.5 51.75 0.5ZM27.75 33.875H27.6562L20.1562 31.7188C19.6875 32.375 19.5 33.125 19.5 33.875C19.5 36.2188 21.2812 38 23.625 38C25.875 38 27.75 36.2188 27.75 33.875ZM4.5 22.625L49.5 35.2812V7.8125L4.5 20.4688V22.625Z" fill="#BEAD8F"/>
</svg>
