<svg width="18" height="21" viewBox="0 0 18 21" fill="none" xmlns="http://www.w3.org/2000/svg">
<path d="M16.875 18.75C17.4844 18.75 18 19.2656 18 19.875C18 20.5312 17.4844 21 16.875 21H1.125C0.46875 21 0 20.5312 0 19.875C0 19.2656 0.46875 18.75 1.125 18.75H16.875ZM14.1562 8.25C14.5781 7.78125 15.2812 7.78125 15.75 8.20312C16.2188 8.625 16.2188 9.32812 15.7969 9.79688L9.79688 16.1719C9.375 16.6406 8.57812 16.6406 8.15625 16.1719L2.15625 9.79688C1.73438 9.32812 1.73438 8.625 2.20312 8.20312C2.4375 8.01562 2.71875 7.92188 3 7.92188C3.28125 7.92188 3.5625 8.01562 3.79688 8.25L7.875 12.5625V1.17188C7.875 0.515625 8.34375 0 9 0C9.60938 0 10.125 0.515625 10.125 1.17188V12.5625L14.1562 8.25Z" fill="#00226D"/>
</svg>
