<svg width="20" height="22" viewBox="0 0 20 22" fill="none" xmlns="http://www.w3.org/2000/svg">
<path d="M18.6719 12.9219L10.7969 21.1719C10.5625 21.4062 10.2812 21.5 9.95312 21.5C9.67188 21.5 9.39062 21.4062 9.15625 21.1719L1.28125 12.9219C0.859375 12.4531 0.859375 11.75 1.32812 11.3281C1.75 10.9062 2.5 10.9062 2.92188 11.375L8.82812 17.6094V1.67188C8.82812 1.01562 9.34375 0.546875 9.95312 0.546875C10.6094 0.546875 11.0781 1.01562 11.0781 1.67188V17.6094L17.0312 11.375C17.4531 10.9062 18.2031 10.9062 18.625 11.3281C19.0938 11.75 19.0938 12.4531 18.6719 12.9219Z" fill="#E60011"/>
</svg>
