<svg width="54" height="49" viewBox="0 0 54 49" fill="none" xmlns="http://www.w3.org/2000/svg">
<path d="M19.5 18.5C20.7188 18.5 21.75 19.5312 21.75 20.75V45.7812C21.75 47 20.7188 48.0312 19.5 48.0312C18.1875 48.0312 17.25 47 17.25 45.7812V20.75C17.25 19.5312 18.1875 18.5 19.5 18.5ZM4.5 33.5C5.71875 33.5 6.75 34.5312 6.75 35.75V46.25C6.75 47.5625 5.71875 48.5 4.5 48.5C3.1875 48.5 2.25 47.5625 2.25 46.25V35.75C2.25 34.5312 3.1875 33.5 4.5 33.5ZM49.5 0.5C51.9375 0.5 54 2.5625 54 5C54 7.53125 51.9375 9.5 49.5 9.5C48.8438 9.5 48.375 9.40625 47.8125 9.21875L38.9062 16.3438C38.9062 16.625 39 16.8125 39 17C39 19.5312 36.9375 21.5 34.5 21.5C31.9688 21.5 30 19.5312 30 17C30 16.8125 30 16.625 30 16.3438L21.0938 9.21875C20.625 9.40625 20.0625 9.5 19.5 9.5C19.0312 9.5 18.6562 9.5 18.2812 9.40625L8.8125 18.875C8.90625 19.25 9 19.625 9 20C9 22.5312 6.9375 24.5 4.5 24.5C1.96875 24.5 0 22.5312 0 20C0 17.5625 1.96875 15.5 4.5 15.5C4.875 15.5 5.25 15.5938 5.625 15.6875L15.0938 6.21875C15 5.84375 15 5.46875 15 5C15 2.5625 16.9688 0.5 19.5 0.5C21.9375 0.5 24 2.5625 24 5C24 5.28125 23.9062 5.46875 23.9062 5.75L32.8125 12.875C33.375 12.6875 33.8438 12.5 34.5 12.5C35.0625 12.5 35.625 12.6875 36.0938 12.875L45 5.75C45 5.46875 45 5.28125 45 5C45 2.5625 46.9688 0.5 49.5 0.5ZM34.5 30.5C35.7188 30.5 36.75 31.5312 36.75 32.75V45.875C36.75 47.0938 35.7188 48.125 34.5 48.125C33.1875 48.125 32.25 47.0938 32.25 45.875V32.75C32.25 31.5312 33.1875 30.5 34.5 30.5ZM49.5 18.5C50.7188 18.5 51.75 19.5312 51.75 20.75V46.25C51.75 47.5625 50.7188 48.5 49.5 48.5C48.1875 48.5 47.25 47.5625 47.25 46.25V20.75C47.25 19.5312 48.1875 18.5 49.5 18.5Z" fill="#BEAD8F"/>
</svg>
