<svg width="24" height="32" viewBox="0 0 24 32" fill="none" xmlns="http://www.w3.org/2000/svg">
<path d="M12 0C18.625 0 24 5.375 24 12C24 16.875 22.3125 18.25 13.1875 31.375C12.875 31.8125 12.4375 32 12 32C11.5 32 11.0625 31.8125 10.75 31.375C1.625 18.25 0 16.875 0 12C0 5.375 5.3125 0 12 0ZM12 27.875C13.0625 26.3125 14.0625 24.875 14.9375 23.6875C20.375 15.9375 21 14.9375 21 12C21 7.0625 16.9375 3 12 3C7 3 3 7.0625 3 12C3 14.9375 3.5625 15.9375 9 23.6875C9.875 24.875 10.875 26.3125 12 27.875ZM12 7C14.75 7 17 9.25 17 12C17 14.8125 14.75 17 12 17C9.1875 17 7 14.8125 7 12C7 9.25 9.1875 7 12 7ZM12 14C13.0625 14 14 13.125 14 12C14 10.9375 13.0625 10 12 10C10.875 10 10 10.9375 10 12C10 13.125 10.875 14 12 14Z" fill="white"/>
</svg>
