<svg width="53" height="49" viewBox="0 0 53 49" fill="none" xmlns="http://www.w3.org/2000/svg">
<path d="M49 21.5C49 22.3438 48.25 23 47.4062 23H26.5V2.09375C26.5 1.25 27.1562 0.5 27.9062 0.5H28C39.25 1.34375 48.1562 10.25 49 21.5ZM31 18.5H43.9375C42.3438 12.2188 37.2812 7.15625 31 5.5625V18.5ZM22 27.5L36.5312 42.125C37.1875 42.7812 37.1875 43.9062 36.4375 44.375C32.875 47 28.4688 48.5 23.7812 48.5H23.5C11.5938 48.5 1.375 38.75 1 26.8438C0.53125 15.125 9.15625 5.375 20.3125 3.78125C20.3125 3.78125 20.4062 3.78125 20.5 3.78125C21.25 3.78125 22 4.4375 22 5.28125V27.5ZM23.6875 44C26.125 44 28.4688 43.5312 30.625 42.5938L18.8125 30.6875L17.5 29.375V9.125C10.1875 11.6562 5.21875 18.6875 5.5 26.6562C5.78125 36.125 14.0312 44 23.5 44H23.6875ZM50.4062 27.5C51.3438 27.5 52.0938 28.3438 51.9062 29.1875C51.25 34.4375 48.7188 39.0312 45.0625 42.4062C44.7812 42.6875 44.5 42.7812 44.125 42.7812C43.75 42.7812 43.2812 42.6875 43 42.3125L28.1875 27.5H50.4062Z" fill="#BEAD8F"/>
</svg>
