<svg width="19" height="22" viewBox="0 0 19 22" fill="none" xmlns="http://www.w3.org/2000/svg">
<path d="M0.78125 9.125L8.65625 0.875C8.89062 0.640625 9.17188 0.546875 9.45312 0.546875C9.78125 0.546875 10.0625 0.640625 10.2969 0.875L18.1719 9.125C18.5938 9.59375 18.5938 10.2969 18.125 10.7188C17.7031 11.1406 16.9531 11.1406 16.5312 10.6719L10.5781 4.4375V20.375C10.5781 21.0312 10.1094 21.5 9.45312 21.5C8.84375 21.5 8.32812 21.0312 8.32812 20.375V4.4375L2.42188 10.6719C2 11.1406 1.25 11.1406 0.828125 10.7188C0.359375 10.2969 0.359375 9.59375 0.78125 9.125Z" fill="#379200"/>
</svg>
