<svg width="31" height="30" viewBox="0 0 31 30" fill="none" xmlns="http://www.w3.org/2000/svg">
<path d="M15.5 0C23.75 0 30.5 6.75 30.5 15C30.5 23.3125 23.75 30 15.5 30C7.1875 30 0.5 23.3125 0.5 15C0.5 6.75 7.1875 0 15.5 0ZM15.5 28C22.625 28 28.5 22.1875 28.5 15C28.5 7.875 22.625 2 15.5 2C8.3125 2 2.5 7.875 2.5 15C2.5 22.1875 8.3125 28 15.5 28ZM15.5 10.5C14.625 10.5 14 9.875 14 9C14 8.1875 14.625 7.5 15.5 7.5C16.3125 7.5 17 8.1875 17 9C17 9.875 16.3125 10.5 15.5 10.5ZM18.5 21C19 21 19.5 21.5 19.5 22C19.5 22.5625 19 23 18.5 23H12.5C11.9375 23 11.5 22.5625 11.5 22C11.5 21.5 11.9375 21 12.5 21H14.5V15H13.5C12.9375 15 12.5 14.5625 12.5 14C12.5 13.5 12.9375 13 13.5 13H15.5C16 13 16.5 13.5 16.5 14V21H18.5Z" fill="#BEAD8F"/>
</svg>
