<svg width="29" height="32" viewBox="0 0 29 32" fill="none" xmlns="http://www.w3.org/2000/svg">
<path d="M24.8333 4C27.0208 4 28.8333 5.8125 28.8333 8V28C28.8333 30.25 27.0208 32 24.8333 32H4.83325C2.58325 32 0.833252 30.25 0.833252 28V8C0.833252 5.8125 2.58325 4 4.83325 4H6.83325V1C6.83325 0.5 7.27075 0 7.83325 0C8.33325 0 8.83325 0.5 8.83325 1V4H20.8333V1C20.8333 0.5 21.2708 0 21.8333 0C22.3333 0 22.8333 0.5 22.8333 1V4H24.8333ZM4.83325 6C3.70825 6 2.83325 6.9375 2.83325 8V10H26.8333V8C26.8333 6.9375 25.8958 6 24.8333 6H4.83325ZM24.8333 30C25.8958 30 26.8333 29.125 26.8333 28V12H2.83325V28C2.83325 29.125 3.70825 30 4.83325 30H24.8333Z" fill="#BEAD8F"/>
</svg>
