<svg width="25" height="32" viewBox="0 0 25 32" fill="none" xmlns="http://www.w3.org/2000/svg">
<path d="M22.9792 7.875C23.7292 8.625 24.1667 9.625 24.1667 10.6875V28C24.1667 30.25 22.3542 32 20.1667 32H4.16675C1.91675 32 0.166748 30.25 0.166748 28V4C0.166748 1.8125 1.91675 0 4.16675 0H13.4792C14.5417 0 15.5417 0.4375 16.2917 1.1875L22.9792 7.875ZM21.5417 9.25L14.9167 2.625C14.6667 2.375 14.4167 2.25 14.1667 2.1875V9C14.1667 9.5625 14.6042 10 15.1667 10H21.9792C21.9167 9.75 21.7917 9.5 21.5417 9.25ZM22.1667 28V12H15.1667C13.4792 12 12.1667 10.6875 12.1667 9V2H4.16675C3.04175 2 2.16675 2.9375 2.16675 4V28C2.16675 29.125 3.04175 30 4.16675 30H20.1667C21.2292 30 22.1667 29.125 22.1667 28Z" fill="#BEAD8F"/>
</svg>
